<?xml version="1.0" encoding="utf-8"?>
<!-- Generator: Adobe Illustrator 13.0.0, SVG Export Plug-In . SVG Version: 6.00 Build 14948)  -->
<!DOCTYPE svg PUBLIC "-//W3C//DTD SVG 1.1//EN" "http://www.w3.org/Graphics/SVG/1.1/DTD/svg11.dtd">
<svg version="1.1" xmlns="http://www.w3.org/2000/svg" xmlns:xlink="http://www.w3.org/1999/xlink" x="0px" y="0px"
	 width="303.307px" height="352.505px" viewBox="0 0 303.307 352.505" enable-background="new 0 0 303.307 352.505"
	 xml:space="preserve">
<symbol  id="Bush_Left" viewBox="-43.3 -24.308 86.601 48.615">
	<g>
		<g>
			<path fill="#009036" d="M-33.888-3.511c8.299,8.895,13.237,21.557,13.237,21.557C-24.14,7.54-28.211,2.316-34.923-6.174
				L-33.888-3.511z"/>
			<path fill="#009036" d="M-30.487,3.161c0.297,2.265,2.376,11.441,2.376,11.441l-2.153-5.593
				c-0.479-2.881,0.761-5.555,0.447-7.952L-30.487,3.161z"/>
			<path fill="#009036" d="M-27.667,8.564c0.297,2.266,1.726,9.829,1.726,9.829l-0.53-3.791c0-2.44-0.211-5.744-0.526-8.142
				L-27.667,8.564z"/>
			<path fill="#009036" d="M-24.188,13.377c0.216,1.381,3.051,6.613,3.051,6.613l-2.181-2.933c0-1.487-0.154-3.501-0.382-4.963
				L-24.188,13.377z"/>
			<path fill="#009036" d="M-21.167,18.075c0.602,1.176,2.76,6.232,2.76,6.232l-1.281-3.51c-0.313-1.289-0.958-3.02-1.595-4.265
				L-21.167,18.075z"/>
			<path fill="#009036" d="M-26.043,10.332c0.297,2.266,1.726,9.828,1.726,9.828l-1.161-4.837c0-2.441,0.42-4.697,0.105-7.095
				L-26.043,10.332z"/>
			<path fill="#009036" d="M-24.522,3.487c1.421,0.866,6.495,3.396,6.495,3.396l-3.35-2.196c-1.774-1.164-5.323-0.626-6.827-1.543
				L-24.522,3.487z"/>
			<path fill="#009036" d="M-21.855,6.884c1.898,1.261,6.128,5.077,6.128,5.077l-3.163-2.14c-2.187-1.069-5.052-2.709-7.062-4.043
				L-21.855,6.884z"/>
			<path fill="#009036" d="M-21.837,13.088c1.036,0.934,3.865,6.169,3.865,6.169l-1.263-3.432c-1.244-0.811-2.842-2.037-3.939-3.025
				L-21.837,13.088z"/>
			<path fill="#009036" d="M-23.271,9.473c1.577,1.009,5.962,5.851,5.962,5.851l-2.632-3.877c-1.816-0.856-3.47-1.16-5.14-2.229
				L-23.271,9.473z"/>
			<path fill="#009036" d="M-32.966,0.366c0.297,2.265,1.6,12.736,1.6,12.736l-1.376-6.888c-0.479-2.881,0.762-5.555,0.447-7.953
				L-32.966,0.366z"/>
			<path fill="#009036" d="M-34.966-1.264c0.297,2.266,1.599,12.736,1.599,12.736l-1.376-6.887
				c-0.479-2.882,0.761-5.556,0.447-7.953L-34.966-1.264z"/>
			<path fill="#009036" d="M-29.402-0.557c1.549,0.605,10.179,4.284,10.179,4.284l-4.82-3.121c-1.949-0.838-5.362-0.453-7.002-1.095
				L-29.402-0.557z"/>
			<path fill="#009036" d="M-29.97-3.318c1.727,0.743,9.727,4.106,9.727,4.106l-5.13-2.746c-2.171-1.049-4.612-0.291-6.44-1.078
				L-29.97-3.318z"/>
		</g>
		<g>
			<path fill="#009036" d="M-41.108-9.821c17.332-2.827,35.766-10.603,35.766-10.603C-18.811-13.763-28.099-11.68-43.3-8.345
				L-41.108-9.821z"/>
			<path fill="#009036" d="M-29.852-13.562c2.399-1.676,13.091-8.003,13.091-8.003l-7.499,3.39
				c-3.164,2.079-4.231,4.895-6.771,6.668L-29.852-13.562z"/>
			<path fill="#009036" d="M-21.787-16.448c2.399-1.676,10.895-7.041,10.895-7.041l-4.051,2.787
				c-2.23,1.975-5.483,4.535-8.022,6.309L-21.787-16.448z"/>
			<path fill="#009036" d="M-13.531-18.509c1.501-1.004,9.426-3.744,9.426-3.744l-5.098,1.225c-1.36,1.204-3.371,2.751-4.96,3.813
				L-13.531-18.509z"/>
			<path fill="#009036" d="M-5.888-20.719c1.742-0.635,8.756-3.589,8.756-3.589l-4.628,2.165c-1.525,0.878-3.821,1.938-5.666,2.609
				L-5.888-20.719z"/>
			<path fill="#009036" d="M-18.371-17.022c2.399-1.676,10.895-7.041,10.895-7.041l-5.708,3.301
				c-2.23,1.975-3.826,4.021-6.366,5.795L-18.371-17.022z"/>
			<path fill="#009036" d="M-22.937-10.686c2.367,0.047,10.307,0.671,10.307,0.671l-5.722,0.014
				c-3.032,0.008-6.476-2.295-8.982-2.345L-22.937-10.686z"/>
			<path fill="#009036" d="M-16.876-12.029c3.258-0.021,11.436-0.882,11.436-0.882l-5.462,0.066
				c-3.403-0.285-8.078-0.468-11.526-0.445L-16.876-12.029z"/>
			<path fill="#009036" d="M-11.188-17.037c2.003-0.21,9.925-2.956,9.925-2.956L-5.8-17.882c-2.12,0.001-5.014,0.151-7.134,0.374
				L-11.188-17.037z"/>
			<path fill="#009036" d="M-16.082-14.868c2.671,0.014,11.958-1.595,11.958-1.595l-6.461,1.751
				c-2.797-0.263-4.908-0.889-7.736-0.902L-16.082-14.868z"/>
			<path fill="#009036" d="M-35.155-12.604c2.399-1.677,13.411-9.46,13.411-9.46l-7.819,4.846c-3.163,2.079-4.231,4.895-6.771,6.668
				L-35.155-12.604z"/>
			<path fill="#009036" d="M-38.862-12.34c2.399-1.676,13.412-9.459,13.412-9.459l-7.819,4.846
				c-3.164,2.079-4.231,4.894-6.771,6.668L-38.862-12.34z"/>
			<path fill="#009036" d="M-32.045-9.982c2.271,0.325,15.205,1.892,15.205,1.892l-8.198-0.013c-2.927-0.348-6.361-2.455-8.766-2.8
				L-32.045-9.982z"/>
			<path fill="#009036" d="M-35.199-8.048C-32.604-7.74-20.658-6.25-20.658-6.25l-8.2-0.479c-3.366-0.294-5.381-2.191-8.127-2.518
				L-35.199-8.048z"/>
		</g>
		<g>
			<path fill="#009036" d="M-20.024-4.793c13.512-1.991,27.731-7.055,27.731-7.055c-10.5,4.69-17.742,6.158-29.593,8.506
				L-20.024-4.793z"/>
			<path fill="#009036" d="M-11.401-7.015c1.871-1.181,10.206-5.637,10.206-5.637l-5.846,2.388C-9.508-8.8-10.341-6.817-12.32-5.568
				L-11.401-7.015z"/>
			<path fill="#009036" d="M-5.113-9.048c1.87-1.18,8.494-4.958,8.494-4.958l-3.158,1.963c-1.739,1.39-4.275,3.192-6.255,4.442
				L-5.113-9.048z"/>
			<path fill="#009036" d="M1.323-10.499c1.17-0.707,7.349-2.637,7.349-2.637l-3.975,0.862c-1.06,0.848-2.627,1.938-3.867,2.686
				L1.323-10.499z"/>
			<path fill="#009036" d="M7.281-12.056c1.358-0.447,6.827-2.527,6.827-2.527L10.5-13.059c-1.189,0.618-2.979,1.365-4.417,1.838
				L7.281-12.056z"/>
			<path fill="#009036" d="M-2.451-9.452c1.871-1.181,8.494-4.959,8.494-4.959l-4.45,2.325c-1.739,1.391-2.982,2.831-4.962,4.08
				L-2.451-9.452z"/>
			<path fill="#009036" d="M-6.011-4.99c1.846,0.033,8.036,0.473,8.036,0.473l-4.46,0.01c-2.364,0.006-5.049-1.616-7.002-1.651
				L-6.011-4.99z"/>
			<path fill="#009036" d="M-1.285-5.937c2.54-0.015,8.916-0.62,8.916-0.62L3.372-6.511c-2.653-0.2-6.298-0.329-8.986-0.313
				L-1.285-5.937z"/>
			<path fill="#009036" d="M3.15-9.463c1.562-0.148,7.737-2.082,7.737-2.082L7.35-10.058c-1.653,0.001-3.909,0.106-5.562,0.263
				L3.15-9.463z"/>
			<path fill="#009036" d="M-0.666-7.936c2.083,0.01,9.323-1.123,9.323-1.123L3.62-7.825C1.439-8.011-0.207-8.451-2.411-8.461
				L-0.666-7.936z"/>
			<path fill="#009036" d="M-15.536-6.342c1.871-1.18,10.456-6.661,10.456-6.661l-6.096,3.413c-2.466,1.463-3.299,3.445-5.278,4.695
				L-15.536-6.342z"/>
			<path fill="#009036" d="M-18.426-6.154c1.87-1.181,10.456-6.662,10.456-6.662l-6.096,3.413c-2.466,1.464-3.299,3.446-5.279,4.695
				L-18.426-6.154z"/>
			<path fill="#009036" d="M-13.112-4.495c1.771,0.229,11.854,1.332,11.854,1.332l-6.392-0.009
				c-2.282-0.245-4.959-1.729-6.834-1.972L-13.112-4.495z"/>
			<path fill="#009036" d="M-15.57-3.133c2.022,0.217,11.336,1.267,11.336,1.267l-6.393-0.338c-2.625-0.207-4.195-1.543-6.336-1.772
				L-15.57-3.133z"/>
		</g>
		<g>
			<path fill="#009036" d="M1.652-2.056c12.235-1.712,25.111-6.067,25.111-6.067C17.255-4.089,10.698-2.826-0.033-0.807L1.652-2.056
				z"/>
			<path fill="#009036" d="M9.46-3.967c1.694-1.015,9.241-4.848,9.241-4.848l-5.293,2.054c-2.233,1.259-2.987,2.964-4.78,4.039
				L9.46-3.967z"/>
			<path fill="#009036" d="M15.154-5.715c1.694-1.016,7.691-4.266,7.691-4.266l-2.859,1.688c-1.575,1.196-3.871,2.747-5.664,3.821
				L15.154-5.715z"/>
			<path fill="#009036" d="M20.982-6.964c1.06-0.607,6.654-2.268,6.654-2.268L24.038-8.49c-0.96,0.729-2.379,1.667-3.501,2.311
				L20.982-6.964z"/>
			<path fill="#009036" d="M26.378-8.303c1.23-0.385,6.182-2.174,6.182-2.174l-3.268,1.312c-1.076,0.532-2.697,1.174-4,1.581
				L26.378-8.303z"/>
			<path fill="#009036" d="M17.565-6.063c1.694-1.015,7.691-4.266,7.691-4.266l-4.029,2c-1.575,1.196-2.701,2.436-4.494,3.511
				L17.565-6.063z"/>
			<path fill="#009036" d="M14.342-2.225c1.671,0.028,7.276,0.406,7.276,0.406L17.579-1.81C15.438-1.805,13.007-3.2,11.238-3.23
				L14.342-2.225z"/>
			<path fill="#009036" d="M18.621-3.038c2.3-0.013,8.073-0.534,8.073-0.534l-3.856,0.04c-2.402-0.173-5.703-0.283-8.137-0.271
				L18.621-3.038z"/>
			<path fill="#009036" d="M22.637-6.072c1.414-0.127,7.006-1.791,7.006-1.791l-3.204,1.279c-1.496,0.001-3.539,0.092-5.036,0.227
				L22.637-6.072z"/>
			<path fill="#009036" d="M19.182-4.758c1.886,0.008,8.442-0.966,8.442-0.966l-4.562,1.06c-1.975-0.158-3.465-0.538-5.461-0.546
				L19.182-4.758z"/>
			<path fill="#009036" d="M5.717-3.387c1.694-1.016,9.468-5.73,9.468-5.73l-5.52,2.936c-2.233,1.259-2.987,2.964-4.78,4.039
				L5.717-3.387z"/>
			<path fill="#009036" d="M3.1-3.227c1.694-1.015,9.468-5.73,9.468-5.73l-5.52,2.936c-2.233,1.26-2.987,2.965-4.78,4.04L3.1-3.227z
				"/>
			<path fill="#009036" d="M7.912-1.799c1.604,0.197,10.733,1.146,10.733,1.146L12.858-0.66c-2.066-0.211-4.49-1.487-6.188-1.696
				L7.912-1.799z"/>
			<path fill="#009036" d="M5.686-0.627C7.518-0.44,15.951,0.462,15.951,0.462l-5.789-0.29C7.786-0.006,6.364-1.155,4.425-1.353
				L5.686-0.627z"/>
		</g>
		<g>
			<path fill="#009036" d="M14.001,2.836c11.079-1.473,22.738-5.22,22.738-5.22C28.13,1.087,22.192,2.173,12.475,3.91L14.001,2.836z
				"/>
			<path fill="#009036" d="M21.072,1.192c1.534-0.873,8.368-4.171,8.368-4.171l-4.793,1.767c-2.022,1.083-2.705,2.551-4.328,3.475
				L21.072,1.192z"/>
			<path fill="#009036" d="M26.228-0.312c1.534-0.874,6.964-3.67,6.964-3.67l-2.589,1.452c-1.426,1.029-3.505,2.363-5.128,3.288
				L26.228-0.312z"/>
			<path fill="#009036" d="M31.505-1.386c0.96-0.523,6.026-1.951,6.026-1.951l-3.259,0.638c-0.869,0.628-2.154,1.434-3.17,1.987
				L31.505-1.386z"/>
			<path fill="#009036" d="M36.391-2.538c1.114-0.331,5.598-1.87,5.598-1.87l-2.959,1.129c-0.975,0.457-2.442,1.009-3.622,1.359
				L36.391-2.538z"/>
			<path fill="#009036" d="M28.411-0.611c1.534-0.873,6.964-3.669,6.964-3.669l-3.649,1.72c-1.426,1.029-2.446,2.095-4.069,3.02
				L28.411-0.611z"/>
			<path fill="#009036" d="M25.492,2.69c1.513,0.024,6.589,0.35,6.589,0.35l-3.658,0.007c-1.938,0.005-4.14-1.195-5.742-1.222
				L25.492,2.69z"/>
			<path fill="#009036" d="M29.367,1.99c2.083-0.011,7.31-0.459,7.31-0.459l-3.492,0.034c-2.175-0.148-5.164-0.243-7.368-0.232
				L29.367,1.99z"/>
			<path fill="#009036" d="M33.003-0.619c1.28-0.109,6.344-1.54,6.344-1.54l-2.9,1.1c-1.355,0.001-3.205,0.079-4.56,0.195
				L33.003-0.619z"/>
			<path fill="#009036" d="M29.875,0.511c1.708,0.008,7.645-0.83,7.645-0.83l-4.13,0.912c-1.788-0.137-3.138-0.463-4.945-0.471
				L29.875,0.511z"/>
			<path fill="#009036" d="M17.682,1.69c1.534-0.873,8.573-4.93,8.573-4.93l-4.998,2.525c-2.022,1.084-2.705,2.551-4.328,3.475
				L17.682,1.69z"/>
			<path fill="#009036" d="M15.313,1.829c1.533-0.874,8.573-4.93,8.573-4.93l-4.999,2.525c-2.022,1.083-2.705,2.55-4.328,3.475
				L15.313,1.829z"/>
			<path fill="#009036" d="M19.669,3.057c1.452,0.17,9.72,0.986,9.72,0.986l-5.241-0.007c-1.871-0.181-4.066-1.279-5.604-1.459
				L19.669,3.057z"/>
			<path fill="#009036" d="M17.654,4.065c1.658,0.16,9.295,0.937,9.295,0.937l-5.242-0.249C19.556,4.6,18.268,3.61,16.512,3.44
				L17.654,4.065z"/>
		</g>
		<g>
			<path fill="#009036" d="M-16.823,0.146C-9.209,6.411-2.933,16.13-2.933,16.13C-7.012,7.951-10.858,4.172-17.184-1.957
				L-16.823,0.146z"/>
			<path fill="#009036" d="M-12.52,5.146c0.525,1.819,3.334,9.083,3.334,9.083l-2.402-4.317c-0.747-2.303-0.128-4.646-0.684-6.572
				L-12.52,5.146z"/>
			<path fill="#009036" d="M-9.624,9.226c0.525,1.82,2.619,7.842,2.619,7.842l-0.904-3.041c-0.317-2.001-0.91-4.681-1.466-6.607
				L-9.624,9.226z"/>
			<path fill="#009036" d="M-6.292,12.74c0.347,1.105,3.232,5.044,3.232,5.044l-2.078-2.135c-0.193-1.22-0.574-2.851-0.942-4.021
				L-6.292,12.74z"/>
			<path fill="#009036" d="M-3.331,16.218c0.621,0.89,2.957,4.768,2.957,4.768l-1.453-2.719c-0.411-1.018-1.138-2.355-1.795-3.298
				L-3.331,16.218z"/>
			<path fill="#009036" d="M-8.131,10.474c0.525,1.819,2.619,7.841,2.619,7.841l-1.532-3.82c-0.317-2-0.283-3.9-0.839-5.827
				L-8.131,10.474z"/>
			<path fill="#009036" d="M-7.835,4.678C-6.617,5.212-2.339,6.66-2.339,6.66l-2.892-1.387c-1.532-0.735-4.224,0.143-5.514-0.423
				L-7.835,4.678z"/>
			<path fill="#009036" d="M-5.318,7.132c1.641,0.8,5.428,3.405,5.428,3.405l-2.739-1.363C-4.47,8.566-6.913,7.576-8.65,6.73
				L-5.318,7.132z"/>
			<path fill="#009036" d="M-4.499,12.213c0.928,0.638,3.809,4.58,3.809,4.58l-1.429-2.657c-1.073-0.511-2.477-1.319-3.458-1.994
				L-4.499,12.213z"/>
			<path fill="#009036" d="M-6.085,9.428c1.358,0.633,5.4,4.06,5.4,4.06l-2.551-2.853c-1.524-0.479-2.852-0.522-4.29-1.192
				L-6.085,9.428z"/>
			<path fill="#009036" d="M-14.812,3.16c0.525,1.82,2.898,10.24,2.898,10.24l-1.965-5.475c-0.746-2.302-0.128-4.646-0.684-6.572
				L-14.812,3.16z"/>
			<path fill="#009036" d="M-16.581,2.071c0.525,1.82,2.898,10.24,2.898,10.24l-1.965-5.475c-0.747-2.302-0.128-4.646-0.685-6.572
				L-16.581,2.071z"/>
			<path fill="#009036" d="M-12.158,1.965c1.284,0.306,8.479,2.256,8.479,2.256l-4.157-1.964c-1.625-0.445-4.232,0.29-5.592-0.033
				L-12.158,1.965z"/>
			<path fill="#009036" d="M-12.959-0.229c1.441,0.396,8.104,2.166,8.104,2.166l-4.35-1.617c-1.826-0.593-3.627,0.33-5.152-0.09
				L-12.959-0.229z"/>
		</g>
		<g>
			<path fill="#009036" d="M-1.735,1.377c5.016,5.233,8.85,13.008,8.85,13.008C4.747,7.917,2.253,4.807-1.853-0.243L-1.735,1.377z"
				/>
			<path fill="#009036" d="M1.003,5.443c0.254,1.415,1.776,7.109,1.776,7.109l-1.427-3.43C0.972,7.327,1.569,5.584,1.3,4.086
				L1.003,5.443z"/>
			<path fill="#009036" d="M2.798,8.724c0.254,1.415,1.348,6.121,1.348,6.121l-0.443-2.367C3.61,10.938,3.365,8.864,3.096,7.366
				L2.798,8.724z"/>
			<path fill="#009036" d="M4.943,11.601c0.174,0.861,1.972,4.033,1.972,4.033l-1.341-1.751c-0.057-0.938-0.22-2.201-0.405-3.113
				L4.943,11.601z"/>
			<path fill="#009036" d="M6.825,14.427c0.384,0.715,1.793,3.807,1.793,3.807l-0.856-2.156c-0.226-0.799-0.655-1.86-1.062-2.617
				L6.825,14.427z"/>
			<path fill="#009036" d="M3.781,9.765c0.254,1.415,1.348,6.121,1.348,6.121L4.29,12.887c-0.093-1.539,0.057-2.981-0.212-4.479
				L3.781,9.765z"/>
			<path fill="#009036" d="M4.377,5.378c0.834,0.481,3.79,1.847,3.79,1.847L6.195,5.992C5.151,5.338,3.172,5.839,2.289,5.329
				L4.377,5.378z"/>
			<path fill="#009036" d="M6.01,7.399c1.118,0.709,3.647,2.924,3.647,2.924L7.793,9.117C6.52,8.542,4.843,7.639,3.659,6.888
				L6.01,7.399z"/>
			<path fill="#009036" d="M6.257,11.312c0.62,0.542,2.414,3.716,2.414,3.716L7.828,12.92c-0.731-0.455-1.679-1.155-2.335-1.729
				L6.257,11.312z"/>
			<path fill="#009036" d="M5.311,9.096c0.927,0.565,3.583,3.42,3.583,3.42l-1.631-2.326c-1.056-0.457-2-0.573-2.981-1.172
				L5.311,9.096z"/>
			<path fill="#009036" d="M-0.5,3.793c0.254,1.416,1.388,7.961,1.388,7.961l-1.039-4.281c-0.38-1.796,0.217-3.539-0.052-5.037
				L-0.5,3.793z"/>
			<path fill="#009036" d="M-1.69,2.856c0.254,1.415,1.388,7.961,1.388,7.961l-1.039-4.282c-0.38-1.795,0.217-3.538-0.052-5.036
				L-1.69,2.856z"/>
			<path fill="#009036" d="M1.472,3.049c0.896,0.312,5.9,2.239,5.9,2.239L4.537,3.539c-1.13-0.44-3.039-0.042-3.988-0.372
				L1.472,3.049z"/>
			<path fill="#009036" d="M1.047,1.333C2.048,1.724,6.685,3.48,6.685,3.48L3.689,1.981c-1.264-0.563-2.61,0.026-3.67-0.387
				L1.047,1.333z"/>
		</g>
		<g>
			<path fill="#009036" d="M10.392,4.123c5.327,4.498,9.139,10.947,9.139,10.947c-2.24-5.313-4.853-7.954-9.162-12.247L10.392,4.123
				z"/>
			<path fill="#009036" d="M13.217,7.543c0.191,1.146,1.526,5.786,1.526,5.786l-1.382-2.828c-0.307-1.457,0.489-2.81,0.287-4.021
				L13.217,7.543z"/>
			<path fill="#009036" d="M15.027,10.275c0.19,1.146,1.108,4.971,1.108,4.971l-0.34-1.917c0-1.234-0.136-2.904-0.338-4.117
				L15.027,10.275z"/>
			<path fill="#009036" d="M17.261,12.709c0.139,0.698,1.958,3.345,1.958,3.345l-1.399-1.483c0-0.752-0.099-1.771-0.246-2.51
				L17.261,12.709z"/>
			<path fill="#009036" d="M19.2,15.085c0.386,0.595,1.772,3.151,1.772,3.151l-0.822-1.774c-0.201-0.652-0.615-1.526-1.024-2.156
				L19.2,15.085z"/>
			<path fill="#009036" d="M16.07,11.17c0.19,1.145,1.108,4.97,1.108,4.97l-0.746-2.446c0-1.234,0.27-2.375,0.068-3.588L16.07,11.17
				z"/>
			<path fill="#009036" d="M17.046,7.708c0.912,0.438,4.169,1.718,4.169,1.718l-2.15-1.11c-1.139-0.589-3.417-0.316-4.382-0.78
				L17.046,7.708z"/>
			<path fill="#009036" d="M18.758,9.426c1.219,0.638,3.934,2.567,3.934,2.567l-2.03-1.082c-1.404-0.541-3.243-1.369-4.533-2.045
				L18.758,9.426z"/>
			<path fill="#009036" d="M18.77,12.563c0.666,0.473,2.481,3.12,2.481,3.12l-0.811-1.735c-0.798-0.41-1.825-1.03-2.529-1.53
				L18.77,12.563z"/>
			<path fill="#009036" d="M17.849,10.734c1.012,0.511,3.828,2.959,3.828,2.959l-1.689-1.961c-1.166-0.433-2.228-0.586-3.299-1.126
				L17.849,10.734z"/>
			<path fill="#009036" d="M11.626,6.13c0.19,1.146,1.026,6.44,1.026,6.44l-0.883-3.482c-0.307-1.457,0.489-2.81,0.287-4.021
				L11.626,6.13z"/>
			<path fill="#009036" d="M10.342,5.306c0.19,1.146,1.027,6.44,1.027,6.44l-0.884-3.482c-0.307-1.457,0.489-2.81,0.287-4.021
				L10.342,5.306z"/>
			<path fill="#009036" d="M13.914,5.663c0.995,0.307,6.534,2.167,6.534,2.167l-3.094-1.579c-1.251-0.423-3.442-0.229-4.495-0.553
				L13.914,5.663z"/>
			<path fill="#009036" d="M13.549,4.267c1.108,0.376,6.245,2.077,6.245,2.077L16.5,4.954c-1.394-0.53-2.96-0.146-4.134-0.545
				L13.549,4.267z"/>
		</g>
		<g>
			<path fill="#009036" d="M22.362,7.215c9.256,2.037,17.473,6.526,17.473,6.526C34.255,9.674,29.5,8.267,21.691,6.004L22.362,7.215
				z"/>
			<path fill="#009036" d="M27.781,9.267c0.817,0.997,4.87,4.805,4.87,4.805l-3.222-2.087c-1.125-1.242-0.74-2.838-1.605-3.893
				L27.781,9.267z"/>
			<path fill="#009036" d="M31.521,11.089c0.817,0.997,3.916,4.211,3.916,4.211l-1.395-1.66c-0.609-1.158-1.613-2.67-2.478-3.726
				L31.521,11.089z"/>
			<path fill="#009036" d="M35.671,12.457c0.528,0.599,4.237,2.336,4.237,2.336l-2.581-0.817c-0.372-0.707-1.004-1.622-1.563-2.256
				L35.671,12.457z"/>
			<path fill="#009036" d="M39.405,13.892c0.804,0.4,3.896,2.231,3.896,2.231l-1.962-1.328c-0.587-0.529-1.566-1.181-2.417-1.604
				L39.405,13.892z"/>
			<path fill="#009036" d="M33.338,11.5c0.817,0.997,3.916,4.211,3.916,4.211l-2.191-1.99c-0.609-1.159-0.816-2.34-1.681-3.396
				L33.338,11.5z"/>
			<path fill="#009036" d="M32.921,7.851c1.421,0.037,6.354-0.098,6.354-0.098l-3.388-0.16c-1.795-0.086-4.669,1.104-6.174,1.064
				L32.921,7.851z"/>
			<path fill="#009036" d="M36.029,8.761c1.925,0.099,6.463,0.797,6.463,0.797l-3.215-0.183c-2.121,0.067-4.959,0.044-6.997-0.061
				L36.029,8.761z"/>
			<path fill="#009036" d="M37.593,11.701c1.112,0.17,4.817,1.91,4.817,1.91l-1.928-1.297c-1.256-0.057-2.918-0.218-4.095-0.398
				L37.593,11.701z"/>
			<path fill="#009036" d="M35.475,10.362c1.589,0.064,6.515,1.207,6.515,1.207l-3.199-1.146c-1.753,0.071-3.232,0.362-4.914,0.295
				L35.475,10.362z"/>
			<path fill="#009036" d="M24.982,8.593c0.817,0.997,4.534,5.624,4.534,5.624l-2.885-2.907c-1.125-1.241-0.741-2.837-1.605-3.892
				L24.982,8.593z"/>
			<path fill="#009036" d="M22.879,8.346c0.817,0.997,4.534,5.624,4.534,5.624l-2.885-2.906c-1.125-1.242-0.741-2.838-1.605-3.893
				L22.879,8.346z"/>
			<path fill="#009036" d="M27.773,7.216c1.465-0.12,9.7-0.646,9.7-0.646l-4.866-0.213c-1.861,0.115-4.66,1.196-6.21,1.324
				L27.773,7.216z"/>
			<path fill="#009036" d="M26.603,6.055c1.649-0.102,9.272-0.611,9.272-0.611L30.84,5.49c-2.103,0.074-3.983,1.076-5.729,1.185
				L26.603,6.055z"/>
		</g>
	</g>
</symbol>
<g id="Ebene_1">
</g>
<g id="Hintergrund">
</g>
<g id="Hilfslinien">
</g>
<g id="Vordergrund">
	<g>
		<g>
			<path fill="#1A171B" d="M151.653,53.12c-81.591,0-147.732,66.141-147.732,147.732c0,81.591,66.142,147.732,147.732,147.732
				s147.732-66.142,147.732-147.732C299.386,119.261,233.244,53.12,151.653,53.12z M151.653,49.199
				c83.757,0,151.653,67.896,151.653,151.653S235.41,352.505,151.653,352.505S0,284.609,0,200.852S67.896,49.199,151.653,49.199z"/>
			<g>
				<linearGradient id="SVGID_1_" gradientUnits="userSpaceOnUse" x1="80.8257" y1="199.4067" x2="80.8257" y2="57.6987">
					<stop  offset="0" style="stop-color:#00A0AE"/>
					<stop  offset="1" style="stop-color:#00D8EC"/>
				</linearGradient>
				<path fill-rule="evenodd" clip-rule="evenodd" fill="url(#SVGID_1_)" d="M28.938,271.685
					c-12.062-20.847-18.965-45.052-18.966-70.869C9.971,122.547,73.414,59.1,151.678,59.099l0.002,141.715L28.938,271.685z"/>
				<linearGradient id="SVGID_2_" gradientUnits="userSpaceOnUse" x1="151.6919" y1="216.8159" x2="151.6919" y2="405.2204">
					<stop  offset="0" style="stop-color:#8F005B"/>
					<stop  offset="1" style="stop-color:#EC0095"/>
				</linearGradient>
				<path fill-rule="evenodd" clip-rule="evenodd" fill="url(#SVGID_2_)" d="M274.426,271.681
					c-12.022,20.869-29.532,38.951-51.89,51.86c-67.778,39.135-154.444,15.913-193.578-51.869l122.723-70.859L274.426,271.681z"/>
				<linearGradient id="SVGID_3_" gradientUnits="userSpaceOnUse" x1="222.5693" y1="201.5288" x2="222.5693" y2="59.7944">
					<stop  offset="0" style="stop-color:#9AAE00"/>
					<stop  offset="1" style="stop-color:#D0EC00"/>
				</linearGradient>
				<path fill-rule="evenodd" clip-rule="evenodd" fill="url(#SVGID_3_)" d="M151.702,59.088
					c24.085-0.023,48.498,6.101,70.855,19.01c67.779,39.135,91.002,125.806,51.87,193.589l-122.725-70.858L151.702,59.088z"/>
				<path fill="#FFFFFF" d="M181.145,278.496v2.143h1.904l-0.112,0.937h-1.792v4.72c0.008,0.289,0.073,0.516,0.197,0.677
					c0.125,0.162,0.265,0.244,0.419,0.247c0.199,0,0.36-0.056,0.484-0.164c0.124-0.109,0.233-0.27,0.327-0.48l0.547,0.813
					c-0.119,0.246-0.319,0.459-0.601,0.639c-0.282,0.181-0.646,0.275-1.094,0.283c-0.507,0.004-0.898-0.143-1.175-0.44
					c-0.276-0.297-0.416-0.766-0.42-1.405v-4.888h-0.574l0.099-0.937h0.476v-1.918L181.145,278.496z M109.011,241.644h3.884v21.023
					c0.014,0.03-0.012,0.328-0.076,0.895c-0.064,0.565-0.251,1.221-0.559,1.966s-0.82,1.399-1.537,1.966
					c-0.716,0.566-1.72,0.864-3.011,0.894c-1.29-0.029-2.294-0.327-3.011-0.894s-1.229-1.221-1.536-1.966s-0.494-1.4-0.559-1.966
					c-0.064-0.566-0.09-0.864-0.076-0.895v-21.023h3.884v21.023c-0.01,0.024,0.001,0.192,0.032,0.504
					c0.03,0.313,0.138,0.625,0.32,0.937s0.498,0.479,0.945,0.504c0.448-0.024,0.763-0.192,0.946-0.504
					c0.183-0.312,0.289-0.624,0.32-0.937c0.03-0.312,0.041-0.479,0.032-0.504V241.644z M115.503,247.544
					c-0.005-0.982,0.161-1.938,0.5-2.869c0.338-0.93,0.88-1.705,1.627-2.323c0.746-0.618,1.729-0.95,2.946-0.996
					c1.54-0.002,2.703,0.37,3.488,1.115c0.786,0.745,1.312,1.66,1.577,2.745c0.266,1.086,0.389,2.138,0.369,3.156l-3.812,0.359
					c0.017-0.931-0.08-1.787-0.289-2.57c-0.208-0.781-0.629-1.197-1.262-1.246c-0.497,0.031-0.846,0.284-1.045,0.761
					c-0.2,0.476-0.297,1.099-0.289,1.868c0.033,0.9,0.354,1.854,0.965,2.857c0.609,1.005,1.31,2.057,2.1,3.155
					c0.938,1.345,1.768,2.688,2.49,4.033c0.722,1.345,1.103,2.725,1.142,4.142c0.04,1.82-0.328,3.371-1.106,4.65
					c-0.777,1.28-2.208,1.948-4.291,2.005c-1.645-0.022-2.874-0.397-3.688-1.124s-1.351-1.672-1.608-2.836
					c-0.259-1.162-0.376-2.409-0.354-3.74l3.812-0.359c-0.024,1.148,0.079,2.173,0.312,3.073c0.231,0.901,0.74,1.377,1.526,1.427
					c0.571-0.018,0.979-0.297,1.227-0.837c0.246-0.54,0.366-1.233,0.36-2.079c-0.038-0.888-0.377-1.85-1.014-2.886
					c-0.639-1.036-1.346-2.114-2.123-3.235c-0.95-1.348-1.772-2.704-2.467-4.069C115.9,250.356,115.537,248.963,115.503,247.544z
					 M130.812,268.099h-3.779l3.995-26.455h4.753l3.995,26.455h-3.779l-0.721-5.399h-3.743L130.812,268.099z M134.736,258.6
					l-1.116-8.353l-0.108-0.684h-0.216l-0.108,0.684l-1.115,8.353H134.736z M146.336,268.099h-4.784v-26.455h1.155h2.261
					c2.328-0.036,4.091,0.477,5.288,1.539c1.197,1.062,1.799,2.889,1.804,5.479c0.017,1.198-0.151,2.213-0.504,3.046
					c-0.352,0.834-0.987,1.642-1.905,2.426c0.033-0.018,0.266,0.152,0.699,0.512c0.433,0.358,0.865,1.009,1.298,1.951
					c0.434,0.943,0.666,2.281,0.699,4.016c0.04,2.002-0.381,3.713-1.264,5.134C150.201,267.167,148.619,267.952,146.336,268.099z
					 M148.319,260.181c-0.022-1.422-0.218-2.418-0.587-2.99c-0.37-0.572-0.779-0.902-1.229-0.99
					c-0.45-0.089-0.807-0.117-1.068-0.087v8.134c0.262,0.031,0.618,0.002,1.068-0.086c0.449-0.088,0.858-0.418,1.229-0.99
					C148.102,262.599,148.297,261.602,148.319,260.181z M148.319,249.023c-0.022-1.188-0.218-2.031-0.587-2.53
					c-0.37-0.499-0.779-0.796-1.229-0.891c-0.45-0.095-0.807-0.13-1.068-0.106v7.055c0.262,0.023,0.618-0.012,1.068-0.107
					c0.449-0.094,0.858-0.391,1.229-0.89C148.102,251.054,148.297,250.21,148.319,249.023z M154.657,268.099v-26.455h3.884v26.455
					H154.657z M161.459,268.099v-26.455h3.883v22.859h5.148v3.596H161.459z M172.076,268.099v-26.455h3.883v26.455H172.076z
					 M181.182,245.635h-3.672v-3.991h11.228v3.991h-3.672v22.464h-3.884V245.635z M192.869,241.644l1.942,8.459l0.107,0.252
					l0.18-0.252l1.942-8.459h3.815l-3.96,15.189v11.266h-1.007h-1.869h-1.007v-11.266l-3.961-15.189H192.869z M113.109,316.238
					V305.81h2.196c0.841,0.002,1.46,0.107,1.857,0.316c0.397,0.208,0.652,0.504,0.765,0.888c0.113,0.384,0.162,0.841,0.149,1.371
					c0.005,0.563-0.099,1.044-0.312,1.446c-0.212,0.401-0.561,0.666-1.045,0.794c0.614,0.138,1.05,0.417,1.306,0.838
					c0.257,0.42,0.381,0.948,0.373,1.584c0.015,0.604-0.021,1.146-0.106,1.624c-0.085,0.479-0.313,0.858-0.684,1.139
					c-0.37,0.279-0.975,0.422-1.813,0.428H113.109z M114.423,311.254v3.964h1.009c0.519-0.001,0.894-0.082,1.125-0.243
					s0.375-0.399,0.431-0.714c0.056-0.313,0.079-0.699,0.069-1.158c0.017-0.604-0.068-1.063-0.256-1.376
					c-0.187-0.313-0.572-0.471-1.158-0.473H114.423z M114.423,306.873v3.39h1.051c0.543-0.009,0.891-0.173,1.044-0.493
					c0.153-0.321,0.222-0.744,0.203-1.271c0.015-0.602-0.07-1.024-0.256-1.27c-0.185-0.246-0.557-0.364-1.117-0.355H114.423z
					 M121.577,308.512c0.788,0.013,1.356,0.19,1.705,0.532c0.349,0.343,0.563,0.771,0.644,1.286s0.115,1.038,0.101,1.569v0.586
					h-3.683c-0.002,0.517,0.021,0.991,0.073,1.424c0.051,0.433,0.174,0.78,0.368,1.043c0.194,0.264,0.505,0.398,0.932,0.405
					c0.451-0.004,0.762-0.139,0.934-0.404c0.172-0.265,0.276-0.635,0.313-1.108l1.063,0.154c-0.082,0.785-0.299,1.381-0.65,1.785
					c-0.352,0.403-0.933,0.605-1.743,0.607c-0.789-0.011-1.364-0.2-1.727-0.567c-0.361-0.368-0.59-0.848-0.685-1.439
					s-0.135-1.229-0.122-1.913c-0.013-0.736,0.027-1.401,0.12-1.997c0.093-0.595,0.316-1.069,0.67-1.421
					C120.244,308.701,120.807,308.521,121.577,308.512z M121.591,309.449c-0.532,0.011-0.868,0.221-1.009,0.629
					c-0.14,0.408-0.21,0.95-0.21,1.627h2.424v-0.561c0.013-0.476-0.062-0.873-0.224-1.195
					C122.409,309.628,122.082,309.461,121.591,309.449z M124.978,308.638h1.034c0.072,0.38,0.11,0.795,0.112,1.244
					c0.188-0.395,0.467-0.699,0.84-0.916c0.373-0.216,0.807-0.325,1.302-0.328l-0.111,1.314c-0.631,0-1.081,0.129-1.352,0.387
					c-0.27,0.258-0.44,0.642-0.511,1.153v4.745h-1.314V308.638z M131.109,308.512c0.788,0.013,1.356,0.19,1.705,0.532
					c0.348,0.343,0.563,0.771,0.644,1.286s0.114,1.038,0.101,1.569v0.586h-3.683c-0.003,0.517,0.021,0.991,0.073,1.424
					c0.051,0.433,0.174,0.78,0.368,1.043c0.194,0.264,0.505,0.398,0.932,0.405c0.45-0.004,0.762-0.139,0.934-0.404
					c0.172-0.265,0.276-0.635,0.313-1.108l1.063,0.154c-0.082,0.785-0.299,1.381-0.65,1.785c-0.352,0.403-0.933,0.605-1.743,0.607
					c-0.789-0.011-1.364-0.2-1.727-0.567c-0.362-0.368-0.59-0.848-0.685-1.439s-0.135-1.229-0.122-1.913
					c-0.013-0.736,0.027-1.401,0.12-1.997c0.093-0.595,0.316-1.069,0.67-1.421C129.775,308.701,130.338,308.521,131.109,308.512z
					 M131.123,309.449c-0.532,0.011-0.868,0.221-1.009,0.629c-0.14,0.408-0.21,0.95-0.21,1.627h2.424v-0.561
					c0.013-0.476-0.063-0.873-0.225-1.195C131.941,309.628,131.614,309.461,131.123,309.449z M136.889,308.512
					c0.762-0.01,1.293,0.178,1.594,0.563c0.302,0.385,0.465,1.027,0.491,1.928l-1.076,0.168c-0.025-0.57-0.107-0.982-0.247-1.236
					c-0.139-0.254-0.393-0.379-0.762-0.375c-0.39,0.003-0.672,0.119-0.845,0.35c-0.174,0.23-0.281,0.561-0.322,0.991
					c-0.042,0.43-0.059,0.944-0.052,1.544c-0.021,0.906,0.028,1.615,0.148,2.129c0.121,0.514,0.44,0.775,0.959,0.784
					c0.453-0.004,0.754-0.163,0.901-0.478s0.234-0.758,0.261-1.328l1.076,0.111c-0.009,0.461-0.068,0.898-0.176,1.312
					s-0.32,0.75-0.637,1.012s-0.792,0.397-1.426,0.405c-0.775-0.009-1.333-0.192-1.676-0.55s-0.554-0.833-0.634-1.428
					c-0.079-0.594-0.112-1.251-0.099-1.97c-0.015-0.727,0.02-1.387,0.104-1.978c0.083-0.592,0.304-1.063,0.662-1.415
					S136.078,308.521,136.889,308.512z M144.832,316.238h-1.314v-5.768c-0.001-0.282-0.076-0.502-0.227-0.658
					c-0.149-0.156-0.368-0.235-0.656-0.237c-0.314-0.003-0.578,0.09-0.79,0.28c-0.212,0.189-0.415,0.492-0.611,0.909v5.474h-1.313
					v-11.029l1.313-0.238v4.66c0.204-0.334,0.458-0.603,0.763-0.806c0.304-0.202,0.693-0.308,1.171-0.313
					c0.651,0.019,1.095,0.226,1.331,0.62s0.348,0.864,0.334,1.408V316.238z M148.289,308.512c0.788,0.013,1.356,0.19,1.705,0.532
					c0.349,0.343,0.563,0.771,0.645,1.286s0.114,1.038,0.1,1.569v0.586h-3.682c-0.003,0.517,0.021,0.991,0.072,1.424
					c0.052,0.433,0.174,0.78,0.368,1.043c0.194,0.264,0.506,0.398,0.933,0.405c0.45-0.004,0.762-0.139,0.934-0.404
					c0.171-0.265,0.275-0.635,0.313-1.108l1.063,0.154c-0.082,0.785-0.299,1.381-0.65,1.785c-0.352,0.403-0.933,0.605-1.742,0.607
					c-0.789-0.011-1.365-0.2-1.727-0.567c-0.362-0.368-0.591-0.848-0.686-1.439c-0.094-0.592-0.135-1.229-0.121-1.913
					c-0.014-0.736,0.026-1.401,0.119-1.997c0.093-0.595,0.316-1.069,0.67-1.421C146.956,308.701,147.519,308.521,148.289,308.512z
					 M148.304,309.449c-0.532,0.011-0.869,0.221-1.009,0.629c-0.141,0.408-0.211,0.95-0.211,1.627h2.424v-0.561
					c0.014-0.476-0.062-0.873-0.224-1.195C149.122,309.628,148.795,309.461,148.304,309.449z M152.795,308.638
					c0.022,0.121,0.047,0.299,0.073,0.531l0.052,0.573c0.22-0.388,0.491-0.688,0.814-0.903s0.725-0.324,1.203-0.327
					c0.65,0.019,1.095,0.226,1.331,0.62s0.348,0.864,0.334,1.408v5.697h-1.314v-5.768c-0.001-0.282-0.076-0.502-0.226-0.658
					c-0.15-0.156-0.369-0.235-0.657-0.237c-0.315-0.003-0.578,0.091-0.79,0.28s-0.415,0.493-0.611,0.91v5.473h-1.314v-7.6H152.795z
					 M159.064,304.97v4.534c0.136-0.243,0.352-0.466,0.648-0.669s0.701-0.311,1.216-0.323c0.513,0.003,0.884,0.162,1.113,0.478
					c0.229,0.314,0.371,0.77,0.426,1.363c0.056,0.594,0.078,1.31,0.069,2.148c0.012,0.691-0.017,1.331-0.086,1.918
					c-0.068,0.586-0.25,1.059-0.542,1.418c-0.293,0.36-0.77,0.545-1.429,0.555c-0.494-0.002-0.88-0.102-1.156-0.299
					c-0.276-0.196-0.508-0.475-0.693-0.835c0,0.09-0.017,0.246-0.052,0.47c-0.035,0.223-0.088,0.393-0.157,0.51h-0.699v-11.029
					L159.064,304.97z M160.34,309.56c-0.329,0.006-0.605,0.104-0.83,0.293s-0.396,0.438-0.515,0.744v3.851
					c0.108,0.282,0.266,0.502,0.469,0.658c0.204,0.156,0.431,0.235,0.68,0.238c0.481,0.013,0.787-0.202,0.92-0.645
					c0.132-0.442,0.189-1.188,0.173-2.24c0.017-1.089-0.026-1.849-0.128-2.279C161.008,309.75,160.751,309.542,160.34,309.56z
					 M165.606,308.512c0.641,0,1.127,0.101,1.46,0.303c0.332,0.201,0.556,0.503,0.672,0.905s0.171,0.905,0.163,1.508v3.541
					c0.005,0.264,0.058,0.432,0.159,0.505s0.221,0.105,0.358,0.097l-0.111,0.867c-0.47-0.006-0.814-0.088-1.034-0.246
					c-0.219-0.158-0.35-0.355-0.393-0.592c-0.167,0.311-0.396,0.553-0.688,0.727c-0.291,0.175-0.692,0.264-1.203,0.266
					c-0.651-0.021-1.1-0.236-1.345-0.646c-0.244-0.41-0.36-0.885-0.348-1.424c-0.013-0.659,0.06-1.184,0.217-1.574
					c0.157-0.39,0.477-0.669,0.957-0.838s1.2-0.252,2.158-0.248v-0.574c0.015-0.529-0.039-0.914-0.161-1.156
					c-0.122-0.241-0.399-0.36-0.834-0.356c-0.368-0.005-0.622,0.099-0.762,0.308c-0.139,0.21-0.222,0.551-0.247,1.023l-1.104-0.098
					c0.024-0.527,0.093-0.96,0.204-1.299c0.111-0.34,0.313-0.59,0.603-0.754C164.619,308.592,165.045,308.511,165.606,308.512z
					 M166.629,314.054v-1.624c-0.59,0.026-1.032,0.087-1.327,0.183c-0.296,0.096-0.491,0.269-0.587,0.518
					c-0.096,0.25-0.14,0.619-0.132,1.107c-0.005,0.38,0.047,0.67,0.156,0.871c0.108,0.202,0.305,0.304,0.587,0.305
					c0.362-0.002,0.649-0.119,0.861-0.354C166.399,314.827,166.547,314.492,166.629,314.054z M169.034,308.638h1.034
					c0.072,0.38,0.109,0.795,0.112,1.244c0.187-0.395,0.467-0.699,0.84-0.916c0.372-0.216,0.807-0.325,1.302-0.328l-0.112,1.314
					c-0.63,0-1.081,0.129-1.351,0.387c-0.271,0.258-0.44,0.642-0.512,1.153v4.745h-1.313V308.638z M176.284,316.238l-0.979-4.17
					l-1.022,1.371v2.799h-1.313v-11.029l1.313-0.238v6.93l1.849-3.262h1.54l-1.526,2.184l1.708,5.416H176.284z M180.59,308.512
					c0.788,0.013,1.355,0.19,1.704,0.532c0.349,0.343,0.563,0.771,0.645,1.286s0.114,1.038,0.101,1.569v0.586h-3.683
					c-0.003,0.517,0.021,0.991,0.073,1.424c0.051,0.433,0.174,0.78,0.368,1.043c0.194,0.264,0.505,0.398,0.932,0.405
					c0.45-0.004,0.762-0.139,0.934-0.404c0.172-0.265,0.276-0.635,0.313-1.108l1.063,0.154c-0.082,0.785-0.299,1.381-0.65,1.785
					c-0.352,0.403-0.933,0.605-1.743,0.607c-0.789-0.011-1.364-0.2-1.727-0.567c-0.362-0.368-0.59-0.848-0.685-1.439
					s-0.135-1.229-0.122-1.913c-0.013-0.736,0.027-1.401,0.12-1.997c0.093-0.595,0.316-1.069,0.67-1.421
					C179.256,308.701,179.818,308.521,180.59,308.512z M180.604,309.449c-0.532,0.011-0.869,0.221-1.009,0.629
					s-0.21,0.95-0.21,1.627h2.424v-0.561c0.013-0.476-0.063-0.873-0.225-1.195C181.422,309.628,181.095,309.461,180.604,309.449z
					 M185.305,308.638v7.6h-1.314v-7.6H185.305z M185.305,305.264v1.818h-1.314v-1.818H185.305z M187.73,306.496v2.143h1.904
					l-0.112,0.937h-1.792v4.72c0.008,0.289,0.073,0.516,0.197,0.677c0.125,0.162,0.265,0.244,0.419,0.247
					c0.199,0,0.36-0.056,0.484-0.164c0.124-0.109,0.233-0.27,0.327-0.48l0.546,0.813c-0.118,0.246-0.318,0.459-0.6,0.639
					c-0.282,0.181-0.646,0.275-1.094,0.283c-0.507,0.004-0.898-0.143-1.175-0.44c-0.276-0.297-0.416-0.766-0.42-1.405v-4.888h-0.574
					l0.099-0.937h0.476v-1.918L187.73,306.496z M127.861,291.81h1.385v10.428h-1.385V291.81z M131.458,294.638
					c0.022,0.121,0.047,0.299,0.073,0.531l0.053,0.573c0.219-0.388,0.49-0.688,0.813-0.903s0.725-0.324,1.203-0.327
					c0.651,0.019,1.095,0.226,1.331,0.62s0.348,0.864,0.334,1.408v5.697h-1.314v-5.768c-0.001-0.282-0.076-0.502-0.226-0.658
					c-0.15-0.156-0.369-0.235-0.657-0.237c-0.314-0.003-0.578,0.091-0.79,0.28s-0.415,0.493-0.611,0.91v5.473h-1.313v-7.6H131.458z
					 M137.7,292.496v2.143h1.903l-0.111,0.937H137.7v4.72c0.007,0.289,0.073,0.516,0.197,0.677c0.125,0.162,0.265,0.244,0.419,0.247
					c0.199,0,0.36-0.056,0.484-0.164c0.124-0.109,0.233-0.27,0.327-0.48l0.546,0.813c-0.118,0.246-0.318,0.459-0.6,0.639
					c-0.282,0.181-0.646,0.275-1.094,0.283c-0.508,0.004-0.898-0.143-1.175-0.44c-0.276-0.297-0.416-0.766-0.42-1.405v-4.888h-0.574
					l0.099-0.937h0.476v-1.918L137.7,292.496z M143.918,302.238c-0.036-0.114-0.066-0.287-0.09-0.519s-0.035-0.422-0.036-0.571
					c-0.19,0.387-0.437,0.686-0.737,0.896s-0.69,0.317-1.168,0.32c-0.651-0.02-1.095-0.227-1.331-0.621s-0.348-0.863-0.334-1.407
					v-5.698h1.301v5.782c0,0.282,0.069,0.501,0.21,0.657c0.14,0.156,0.35,0.236,0.631,0.238c0.316,0.003,0.576-0.09,0.78-0.279
					c0.205-0.19,0.388-0.494,0.55-0.912v-5.486h1.329v7.6H143.918z M147.307,294.638v7.6h-1.314v-7.6H147.307z M147.307,291.264
					v1.818h-1.314v-1.818H147.307z M149.732,292.496v2.143h1.904l-0.112,0.937h-1.792v4.72c0.008,0.289,0.073,0.516,0.198,0.677
					c0.124,0.162,0.264,0.244,0.418,0.247c0.199,0,0.36-0.056,0.484-0.164c0.124-0.109,0.233-0.27,0.327-0.48l0.547,0.813
					c-0.119,0.246-0.319,0.459-0.601,0.639c-0.281,0.181-0.646,0.275-1.094,0.283c-0.507,0.004-0.898-0.143-1.175-0.44
					c-0.276-0.297-0.416-0.766-0.42-1.405v-4.888h-0.573l0.098-0.937h0.476v-1.918L149.732,292.496z M153.568,294.638v7.6h-1.314
					v-7.6H153.568z M153.568,291.264v1.818h-1.314v-1.818H153.568z M155.701,294.638l1.135,5.543l1.119-5.543h1.232l-1.861,7.6
					h-1.121l-1.959-7.6H155.701z M161.175,294.638v7.6h-1.314v-7.6H161.175z M161.175,291.264v1.818h-1.314v-1.818H161.175z
					 M163.602,292.496v2.143h1.903l-0.112,0.937h-1.791v4.72c0.007,0.289,0.072,0.516,0.197,0.677
					c0.125,0.162,0.264,0.244,0.418,0.247c0.199,0,0.361-0.056,0.485-0.164c0.124-0.109,0.232-0.27,0.327-0.48l0.546,0.813
					c-0.119,0.246-0.319,0.459-0.601,0.639c-0.281,0.181-0.646,0.275-1.094,0.283c-0.507,0.004-0.898-0.143-1.175-0.44
					c-0.276-0.297-0.416-0.766-0.419-1.405v-4.888h-0.574l0.098-0.937h0.477v-1.918L163.602,292.496z M168.236,294.512
					c0.641,0,1.127,0.101,1.459,0.303c0.333,0.201,0.557,0.503,0.673,0.905s0.171,0.905,0.163,1.508v3.541
					c0.005,0.264,0.058,0.432,0.159,0.505c0.101,0.073,0.221,0.105,0.358,0.097l-0.111,0.867c-0.47-0.006-0.814-0.088-1.034-0.246
					c-0.219-0.158-0.351-0.355-0.393-0.592c-0.167,0.311-0.396,0.553-0.688,0.727c-0.291,0.175-0.692,0.264-1.203,0.266
					c-0.651-0.021-1.1-0.236-1.345-0.646c-0.244-0.41-0.36-0.885-0.348-1.424c-0.013-0.659,0.06-1.184,0.217-1.574
					c0.157-0.39,0.476-0.669,0.957-0.838c0.48-0.169,1.2-0.252,2.158-0.248v-0.574c0.015-0.529-0.039-0.914-0.161-1.156
					c-0.122-0.241-0.4-0.36-0.834-0.356c-0.368-0.005-0.622,0.099-0.762,0.308c-0.139,0.21-0.222,0.551-0.247,1.023l-1.104-0.098
					c0.025-0.527,0.094-0.96,0.205-1.299c0.111-0.34,0.313-0.59,0.603-0.754C167.248,294.592,167.674,294.511,168.236,294.512z
					 M169.259,300.054v-1.624c-0.59,0.026-1.032,0.087-1.327,0.183s-0.491,0.269-0.587,0.518c-0.096,0.25-0.14,0.619-0.132,1.107
					c-0.005,0.38,0.047,0.67,0.156,0.871c0.108,0.202,0.305,0.304,0.587,0.305c0.362-0.002,0.649-0.119,0.861-0.354
					C169.029,300.827,169.177,300.492,169.259,300.054z M167.759,291.978v1.679h-1.146v-1.679H167.759z M170.041,291.978v1.679
					h-1.146v-1.679H170.041z M172.979,292.496v2.143h1.903l-0.112,0.937h-1.791v4.72c0.007,0.289,0.072,0.516,0.197,0.677
					c0.125,0.162,0.264,0.244,0.418,0.247c0.199,0,0.361-0.056,0.485-0.164c0.124-0.109,0.232-0.27,0.327-0.48l0.546,0.813
					c-0.119,0.246-0.319,0.459-0.601,0.639c-0.281,0.181-0.646,0.275-1.094,0.283c-0.507,0.004-0.898-0.143-1.175-0.44
					c-0.276-0.297-0.416-0.766-0.419-1.405v-4.888h-0.574l0.098-0.937h0.477v-1.918L172.979,292.496z M119.695,277.81h4.296v1.09
					h-2.898v3.461h2.353l-0.112,1.104h-2.24v4.773h-1.397V277.81z M128.15,288.238c-0.036-0.114-0.066-0.287-0.09-0.519
					s-0.035-0.422-0.036-0.571c-0.19,0.387-0.437,0.686-0.737,0.896s-0.69,0.317-1.168,0.32c-0.651-0.02-1.095-0.227-1.331-0.621
					s-0.348-0.863-0.334-1.407v-5.698h1.301v5.782c0,0.282,0.069,0.501,0.21,0.657c0.14,0.156,0.351,0.236,0.631,0.238
					c0.316,0.003,0.576-0.09,0.78-0.279c0.205-0.19,0.388-0.494,0.55-0.912v-5.486h1.329v7.6H128.15z M131.329,280.638
					c0.022,0.121,0.048,0.299,0.073,0.531l0.053,0.573c0.22-0.388,0.491-0.688,0.814-0.903s0.724-0.324,1.203-0.327
					c0.65,0.019,1.094,0.226,1.33,0.62s0.348,0.864,0.334,1.408v5.697h-1.314v-5.768c0-0.282-0.076-0.502-0.226-0.658
					s-0.368-0.235-0.656-0.237c-0.315-0.003-0.579,0.091-0.79,0.28c-0.212,0.189-0.416,0.493-0.611,0.91v5.473h-1.314v-7.6H131.329z
					 M139.574,288.238l-0.98-4.17l-1.022,1.371v2.799h-1.313v-11.029l1.313-0.238v6.93l1.849-3.262h1.54l-1.526,2.184l1.708,5.416
					H139.574z M143.08,278.496v2.143h1.903l-0.111,0.937h-1.792v4.72c0.007,0.289,0.073,0.516,0.197,0.677
					c0.125,0.162,0.264,0.244,0.418,0.247c0.199,0,0.361-0.056,0.485-0.164c0.124-0.109,0.233-0.27,0.327-0.48l0.546,0.813
					c-0.118,0.246-0.318,0.459-0.601,0.639c-0.281,0.181-0.646,0.275-1.094,0.283c-0.507,0.004-0.898-0.143-1.175-0.44
					c-0.275-0.297-0.415-0.766-0.419-1.405v-4.888h-0.574l0.098-0.937h0.477v-1.918L143.08,278.496z M146.916,280.638v7.6h-1.314
					v-7.6H146.916z M146.916,277.264v1.818h-1.314v-1.818H146.916z M150.463,280.512c0.843,0.01,1.447,0.196,1.815,0.56
					c0.368,0.364,0.593,0.844,0.675,1.441c0.082,0.597,0.114,1.25,0.099,1.96c0.016,0.701-0.019,1.347-0.102,1.938
					c-0.084,0.591-0.31,1.065-0.678,1.427c-0.368,0.359-0.972,0.545-1.81,0.555c-0.838-0.01-1.44-0.195-1.806-0.555
					c-0.366-0.361-0.59-0.836-0.671-1.427c-0.082-0.591-0.114-1.236-0.099-1.938c-0.016-0.71,0.019-1.363,0.102-1.96
					c0.083-0.598,0.308-1.077,0.674-1.441C149.029,280.708,149.629,280.522,150.463,280.512z M150.463,281.575
					c-0.404-0.002-0.695,0.1-0.875,0.304c-0.18,0.203-0.291,0.52-0.333,0.947c-0.043,0.428-0.061,0.977-0.053,1.647
					c-0.008,0.666,0.01,1.212,0.053,1.638c0.042,0.426,0.153,0.741,0.333,0.944c0.18,0.204,0.471,0.305,0.875,0.303
					c0.403,0.002,0.695-0.099,0.875-0.303c0.18-0.203,0.29-0.519,0.333-0.944c0.042-0.426,0.06-0.972,0.053-1.638
					c0.007-0.671-0.011-1.22-0.053-1.647c-0.043-0.428-0.153-0.744-0.333-0.947C151.158,281.674,150.866,281.573,150.463,281.575z
					 M155.132,280.638c0.022,0.121,0.048,0.299,0.073,0.531l0.053,0.573c0.22-0.388,0.491-0.688,0.814-0.903
					s0.724-0.324,1.203-0.327c0.65,0.019,1.094,0.226,1.33,0.62s0.348,0.864,0.334,1.408v5.697h-1.314v-5.768
					c0-0.282-0.076-0.502-0.226-0.658s-0.368-0.235-0.656-0.237c-0.315-0.003-0.579,0.091-0.79,0.28
					c-0.212,0.189-0.416,0.493-0.611,0.91v5.473h-1.314v-7.6H155.132z M162.174,280.512c0.641,0,1.127,0.101,1.459,0.303
					c0.332,0.201,0.557,0.503,0.673,0.905s0.171,0.905,0.163,1.508v3.541c0.005,0.264,0.058,0.432,0.159,0.505
					c0.101,0.073,0.221,0.105,0.358,0.097l-0.112,0.867c-0.469-0.006-0.813-0.088-1.033-0.246c-0.219-0.158-0.351-0.355-0.394-0.592
					c-0.166,0.311-0.396,0.553-0.688,0.727c-0.291,0.175-0.692,0.264-1.203,0.266c-0.652-0.021-1.1-0.236-1.345-0.646
					c-0.244-0.41-0.36-0.885-0.348-1.424c-0.013-0.659,0.06-1.184,0.217-1.574c0.157-0.39,0.476-0.669,0.957-0.838
					c0.48-0.169,1.2-0.252,2.158-0.248v-0.574c0.015-0.529-0.039-0.914-0.161-1.156c-0.122-0.241-0.4-0.36-0.834-0.356
					c-0.368-0.005-0.623,0.099-0.762,0.308c-0.14,0.21-0.222,0.551-0.247,1.023l-1.104-0.098c0.025-0.527,0.094-0.96,0.205-1.299
					c0.111-0.34,0.313-0.59,0.603-0.754C161.186,280.592,161.611,280.511,162.174,280.512z M163.196,286.054v-1.624
					c-0.59,0.026-1.032,0.087-1.327,0.183c-0.296,0.096-0.491,0.269-0.587,0.518c-0.096,0.25-0.14,0.619-0.132,1.107
					c-0.005,0.38,0.047,0.67,0.156,0.871c0.108,0.202,0.304,0.304,0.586,0.305c0.363-0.002,0.65-0.119,0.862-0.354
					C162.967,286.827,163.114,286.492,163.196,286.054z M166.915,288.238h-1.313v-11.029l1.313-0.238V288.238z M169.342,280.638v7.6
					h-1.314v-7.6H169.342z M169.342,277.264v1.818h-1.314v-1.818H169.342z M171.768,278.496v2.143h1.904l-0.112,0.937h-1.792v4.72
					c0.008,0.289,0.073,0.516,0.197,0.677c0.125,0.162,0.265,0.244,0.419,0.247c0.199,0,0.36-0.056,0.484-0.164
					c0.124-0.109,0.233-0.27,0.327-0.48l0.546,0.813c-0.118,0.246-0.318,0.459-0.6,0.639c-0.282,0.181-0.646,0.275-1.094,0.283
					c-0.507,0.004-0.898-0.143-1.175-0.44c-0.276-0.297-0.416-0.766-0.42-1.405v-4.888h-0.574l0.099-0.937h0.476v-1.918
					L171.768,278.496z M176.402,280.512c0.641,0,1.128,0.101,1.46,0.303c0.332,0.201,0.557,0.503,0.673,0.905
					s0.17,0.905,0.162,1.508v3.541c0.006,0.264,0.059,0.432,0.16,0.505c0.101,0.073,0.221,0.105,0.358,0.097l-0.112,0.867
					c-0.47-0.006-0.813-0.088-1.033-0.246s-0.351-0.355-0.394-0.592c-0.167,0.311-0.396,0.553-0.688,0.727
					c-0.292,0.175-0.692,0.264-1.203,0.266c-0.652-0.021-1.101-0.236-1.345-0.646s-0.36-0.885-0.348-1.424
					c-0.014-0.659,0.059-1.184,0.217-1.574c0.156-0.39,0.476-0.669,0.957-0.838c0.48-0.169,1.199-0.252,2.158-0.248v-0.574
					c0.014-0.529-0.039-0.914-0.161-1.156c-0.122-0.241-0.4-0.36-0.834-0.356c-0.369-0.005-0.623,0.099-0.762,0.308
					c-0.14,0.21-0.222,0.551-0.247,1.023l-1.104-0.098c0.024-0.527,0.093-0.96,0.204-1.299c0.112-0.34,0.313-0.59,0.604-0.754
					C175.415,280.592,175.841,280.511,176.402,280.512z M177.426,286.054v-1.624c-0.59,0.026-1.033,0.087-1.328,0.183
					s-0.49,0.269-0.586,0.518c-0.096,0.25-0.14,0.619-0.132,1.107c-0.005,0.38,0.047,0.67,0.155,0.871
					c0.109,0.202,0.305,0.304,0.587,0.305c0.362-0.002,0.65-0.119,0.862-0.354C177.196,286.827,177.343,286.492,177.426,286.054z
					 M175.926,277.978v1.679h-1.146v-1.679H175.926z M178.208,277.978v1.679h-1.146v-1.679H178.208z"/>
				<path fill="#FFFFFF" d="M233.526,150.884l-0.14-4.086h1.132l-0.14,4.086H233.526z M235.668,150.884l-0.14-4.086h1.132
					l-0.111,4.086H235.668z M197.124,111.093v3.991h-5.364v6.953h3.6v3.991h-3.6v11.52h-3.884v-26.456h0.431h2.485H197.124z
					 M198.742,137.549v-26.456h8.888v3.991h-5.004v6.953h3.6v4.243h-3.6v7.276h5.004v3.992H198.742z M209.774,137.549v-26.456h8.888
					v3.991h-5.004v6.953h3.6v4.243h-3.6v7.276h5.004v3.992H209.774z M220.807,137.549v-26.456h3.883v22.86h5.148v3.596H220.807z
					 M193.383,185.688h-1.539l-0.994-4.677h-1.037v4.677h-1.385v-10.429h2.211c0.765-0.001,1.339,0.092,1.723,0.279
					s0.639,0.479,0.764,0.873c0.126,0.395,0.184,0.901,0.174,1.521c0.011,0.789-0.064,1.436-0.228,1.938s-0.483,0.827-0.962,0.973
					L193.383,185.688z M189.813,179.95h1.009c0.509,0.01,0.836-0.133,0.982-0.429c0.146-0.297,0.211-0.808,0.194-1.532
					c0.021-0.629-0.045-1.073-0.196-1.333s-0.511-0.385-1.079-0.376h-0.91V179.95z M196.404,177.961
					c0.788,0.013,1.356,0.19,1.705,0.532c0.349,0.343,0.563,0.771,0.645,1.286c0.08,0.515,0.114,1.038,0.1,1.569v0.586h-3.682
					c-0.003,0.517,0.021,0.991,0.072,1.424s0.174,0.78,0.368,1.043c0.194,0.264,0.505,0.398,0.933,0.406
					c0.45-0.005,0.761-0.14,0.933-0.405c0.172-0.265,0.276-0.635,0.313-1.108l1.063,0.154c-0.082,0.786-0.299,1.381-0.65,1.785
					c-0.352,0.403-0.933,0.605-1.742,0.607c-0.79-0.011-1.365-0.2-1.728-0.567c-0.361-0.368-0.59-0.848-0.685-1.439
					c-0.094-0.592-0.135-1.229-0.121-1.913c-0.014-0.736,0.026-1.401,0.119-1.997c0.093-0.595,0.316-1.069,0.67-1.421
					C195.071,178.15,195.634,177.97,196.404,177.961z M196.418,178.898c-0.532,0.011-0.868,0.221-1.008,0.629
					c-0.141,0.408-0.211,0.95-0.211,1.627h2.424v-0.561c0.013-0.476-0.062-0.873-0.224-1.195
					C197.236,179.078,196.91,178.911,196.418,178.898z M201.918,177.961c0.641,0,1.128,0.101,1.46,0.303
					c0.332,0.201,0.557,0.503,0.673,0.905s0.17,0.905,0.162,1.508v3.541c0.005,0.264,0.059,0.432,0.159,0.506
					c0.102,0.072,0.222,0.104,0.359,0.096l-0.112,0.868c-0.47-0.007-0.813-0.089-1.033-0.247s-0.351-0.355-0.394-0.592
					c-0.167,0.311-0.396,0.553-0.688,0.727c-0.292,0.175-0.692,0.264-1.203,0.266c-0.652-0.021-1.101-0.236-1.345-0.646
					c-0.244-0.409-0.36-0.885-0.348-1.424c-0.014-0.659,0.059-1.184,0.216-1.574c0.157-0.39,0.477-0.669,0.957-0.838
					c0.481-0.169,1.2-0.252,2.159-0.248v-0.574c0.014-0.528-0.039-0.914-0.162-1.156c-0.121-0.241-0.399-0.36-0.833-0.356
					c-0.369-0.005-0.623,0.099-0.762,0.308c-0.14,0.21-0.222,0.551-0.247,1.023l-1.104-0.098c0.024-0.527,0.093-0.96,0.204-1.299
					c0.112-0.34,0.313-0.59,0.604-0.754C200.931,178.042,201.356,177.96,201.918,177.961z M202.941,183.503v-1.623
					c-0.59,0.025-1.033,0.086-1.328,0.182s-0.49,0.269-0.586,0.518c-0.096,0.25-0.141,0.619-0.132,1.107
					c-0.005,0.38,0.047,0.67,0.155,0.872c0.109,0.201,0.305,0.303,0.587,0.305c0.362-0.003,0.649-0.12,0.862-0.354
					C202.712,184.276,202.858,183.941,202.941,183.503z M208.662,185.688l-0.98-4.171l-1.021,1.371v2.8h-1.314v-11.03l1.314-0.238
					v6.93l1.848-3.262h1.54l-1.525,2.184l1.708,5.417H208.662z M212.168,175.945v2.142h1.904l-0.112,0.937h-1.792v4.72
					c0.008,0.289,0.073,0.516,0.198,0.677c0.124,0.162,0.264,0.244,0.418,0.247c0.199,0,0.36-0.056,0.485-0.164
					c0.123-0.109,0.232-0.27,0.326-0.48l0.547,0.813c-0.119,0.246-0.319,0.459-0.601,0.639c-0.281,0.181-0.646,0.275-1.094,0.283
					c-0.507,0.004-0.898-0.143-1.175-0.439c-0.276-0.298-0.416-0.767-0.42-1.406v-4.888h-0.573l0.098-0.937h0.476v-1.918
					L212.168,175.945z M216.004,178.087v7.601h-1.314v-7.601H216.004z M216.004,174.713v1.818h-1.314v-1.818H216.004z
					 M219.551,177.961c0.843,0.01,1.448,0.196,1.816,0.56c0.367,0.364,0.593,0.844,0.674,1.441c0.082,0.597,0.115,1.25,0.1,1.96
					c0.016,0.701-0.019,1.347-0.103,1.938c-0.083,0.591-0.31,1.065-0.677,1.427c-0.369,0.359-0.972,0.545-1.811,0.555
					c-0.838-0.01-1.439-0.195-1.806-0.555c-0.366-0.361-0.589-0.836-0.671-1.427c-0.081-0.591-0.113-1.236-0.098-1.938
					c-0.016-0.71,0.018-1.363,0.102-1.96c0.083-0.598,0.308-1.077,0.674-1.441C218.117,178.158,218.718,177.971,219.551,177.961z
					 M219.551,179.024c-0.403-0.002-0.695,0.1-0.874,0.304c-0.18,0.203-0.291,0.52-0.333,0.947
					c-0.043,0.428-0.061,0.977-0.054,1.647c-0.007,0.666,0.011,1.212,0.054,1.638c0.042,0.426,0.153,0.741,0.333,0.944
					c0.179,0.204,0.471,0.305,0.874,0.304c0.404,0.001,0.695-0.1,0.875-0.304c0.18-0.203,0.291-0.519,0.334-0.944
					c0.042-0.426,0.06-0.972,0.053-1.638c0.007-0.671-0.011-1.22-0.053-1.647c-0.043-0.428-0.154-0.744-0.334-0.947
					C220.246,179.124,219.955,179.022,219.551,179.024z M224.221,178.087c0.022,0.121,0.047,0.299,0.073,0.531l0.052,0.573
					c0.221-0.388,0.492-0.688,0.814-0.903c0.323-0.215,0.725-0.324,1.203-0.327c0.651,0.019,1.095,0.226,1.331,0.62
					s0.348,0.864,0.334,1.408v5.698h-1.314v-5.769c-0.001-0.282-0.076-0.502-0.226-0.658c-0.15-0.156-0.369-0.235-0.657-0.237
					c-0.314-0.003-0.578,0.091-0.79,0.28c-0.211,0.189-0.415,0.493-0.611,0.91v5.474h-1.313v-7.601H224.221z M183.101,161.259h1.384
					v10.429h-1.384V161.259z M186.696,164.087c0.022,0.121,0.048,0.299,0.073,0.532l0.053,0.573c0.22-0.388,0.491-0.689,0.814-0.904
					c0.323-0.214,0.724-0.324,1.203-0.327c0.65,0.019,1.094,0.226,1.33,0.621c0.236,0.395,0.348,0.864,0.334,1.408v5.698h-1.314
					v-5.769c0-0.282-0.076-0.501-0.226-0.658s-0.368-0.236-0.656-0.238c-0.315-0.003-0.579,0.09-0.79,0.28
					c-0.212,0.19-0.416,0.494-0.611,0.911v5.473h-1.314v-7.601H186.696z M192.939,161.945v2.142h1.903l-0.112,0.937h-1.791v4.719
					c0.007,0.29,0.072,0.516,0.197,0.677c0.125,0.162,0.264,0.244,0.418,0.247c0.199,0,0.361-0.056,0.485-0.165
					s0.232-0.269,0.327-0.479l0.546,0.812c-0.119,0.246-0.319,0.459-0.601,0.639s-0.646,0.274-1.094,0.283
					c-0.507,0.003-0.898-0.144-1.175-0.44c-0.276-0.297-0.416-0.766-0.419-1.406v-4.887h-0.574l0.098-0.937h0.477v-1.918
					L192.939,161.945z M197.798,163.961c0.788,0.013,1.356,0.19,1.705,0.533s0.563,0.771,0.644,1.286
					c0.082,0.515,0.115,1.038,0.101,1.569v0.586h-3.683c-0.002,0.516,0.021,0.991,0.073,1.423c0.051,0.433,0.174,0.78,0.368,1.043
					s0.505,0.398,0.932,0.405c0.451-0.004,0.762-0.139,0.934-0.405c0.172-0.265,0.276-0.635,0.313-1.108l1.063,0.154
					c-0.082,0.786-0.299,1.381-0.65,1.785s-0.933,0.606-1.743,0.608c-0.789-0.011-1.364-0.201-1.727-0.568
					c-0.361-0.368-0.59-0.848-0.685-1.439s-0.135-1.229-0.122-1.913c-0.013-0.736,0.027-1.402,0.12-1.998
					c0.093-0.595,0.316-1.069,0.67-1.421C196.465,164.15,197.027,163.97,197.798,163.961z M197.812,164.898
					c-0.532,0.011-0.868,0.22-1.009,0.628c-0.14,0.409-0.21,0.951-0.21,1.627h2.424v-0.56c0.013-0.476-0.062-0.874-0.224-1.195
					C198.63,165.078,198.304,164.911,197.812,164.898z M201.198,164.087h1.035c0.072,0.38,0.109,0.795,0.111,1.244
					c0.188-0.394,0.468-0.699,0.84-0.916c0.373-0.216,0.807-0.326,1.302-0.329l-0.111,1.314c-0.631,0-1.081,0.129-1.352,0.387
					c-0.27,0.257-0.44,0.642-0.511,1.153v4.746h-1.314V164.087z M207.246,163.961c0.641,0,1.127,0.101,1.459,0.303
					c0.333,0.201,0.557,0.503,0.673,0.906s0.171,0.905,0.163,1.507v3.541c0.005,0.264,0.058,0.433,0.159,0.506
					c0.102,0.073,0.221,0.105,0.358,0.096l-0.111,0.868c-0.47-0.006-0.814-0.089-1.033-0.247c-0.22-0.158-0.351-0.355-0.394-0.591
					c-0.167,0.31-0.396,0.552-0.688,0.727c-0.291,0.174-0.692,0.263-1.203,0.266c-0.651-0.021-1.1-0.237-1.344-0.647
					c-0.245-0.409-0.361-0.884-0.349-1.424c-0.013-0.659,0.06-1.184,0.217-1.574s0.477-0.669,0.957-0.838s1.2-0.251,2.158-0.248
					v-0.574c0.015-0.529-0.039-0.915-0.161-1.156s-0.399-0.361-0.834-0.357c-0.368-0.004-0.622,0.099-0.762,0.308
					c-0.139,0.209-0.222,0.55-0.247,1.023l-1.104-0.098c0.024-0.527,0.093-0.959,0.204-1.298c0.111-0.339,0.313-0.59,0.603-0.754
					C206.258,164.042,206.685,163.96,207.246,163.961z M208.269,169.503v-1.624c-0.59,0.025-1.032,0.086-1.327,0.182
					s-0.49,0.269-0.587,0.518c-0.096,0.25-0.14,0.619-0.132,1.107c-0.005,0.38,0.047,0.67,0.156,0.872
					c0.109,0.201,0.305,0.303,0.587,0.305c0.362-0.003,0.649-0.121,0.861-0.354C208.039,170.276,208.187,169.941,208.269,169.503z
					 M213.99,171.688l-0.98-4.171l-1.021,1.372v2.8h-1.314v-11.03l1.314-0.238v6.929l1.848-3.261h1.54l-1.526,2.184l1.708,5.417
					H213.99z M217.496,161.945v2.142h1.904l-0.112,0.937h-1.792v4.719c0.007,0.29,0.073,0.516,0.197,0.677
					c0.125,0.162,0.265,0.244,0.419,0.247c0.199,0,0.36-0.056,0.484-0.165s0.233-0.269,0.327-0.479l0.546,0.812
					c-0.118,0.246-0.318,0.459-0.601,0.639c-0.281,0.18-0.646,0.274-1.094,0.283c-0.506,0.003-0.898-0.144-1.174-0.44
					c-0.276-0.297-0.416-0.766-0.42-1.406v-4.887h-0.574l0.099-0.937h0.476v-1.918L217.496,161.945z M221.332,164.087v7.601h-1.314
					v-7.601H221.332z M221.332,160.713v1.818h-1.314v-1.818H221.332z M224.879,163.961c0.843,0.01,1.448,0.197,1.816,0.56
					c0.367,0.364,0.592,0.844,0.674,1.44c0.082,0.597,0.115,1.25,0.099,1.96c0.016,0.701-0.019,1.347-0.102,1.938
					c-0.084,0.591-0.31,1.066-0.678,1.426s-0.972,0.545-1.81,0.556c-0.838-0.01-1.439-0.195-1.806-0.556s-0.59-0.835-0.671-1.426
					s-0.114-1.236-0.099-1.938c-0.015-0.71,0.019-1.363,0.102-1.96c0.083-0.597,0.308-1.077,0.674-1.44
					C223.445,164.158,224.045,163.971,224.879,163.961z M224.879,165.024c-0.403-0.002-0.695,0.1-0.875,0.303
					s-0.29,0.52-0.333,0.948c-0.042,0.428-0.06,0.977-0.053,1.647c-0.007,0.666,0.011,1.212,0.053,1.638
					c0.043,0.426,0.153,0.741,0.333,0.944c0.18,0.204,0.472,0.305,0.875,0.303c0.404,0.001,0.695-0.1,0.875-0.303
					c0.18-0.203,0.291-0.518,0.333-0.944s0.061-0.972,0.053-1.638c0.008-0.67-0.011-1.22-0.053-1.647
					c-0.042-0.428-0.153-0.744-0.333-0.948S225.283,165.022,224.879,165.024z M229.549,164.087c0.022,0.121,0.047,0.299,0.072,0.532
					l0.053,0.573c0.22-0.388,0.491-0.689,0.814-0.904c0.323-0.214,0.725-0.324,1.203-0.327c0.65,0.019,1.094,0.226,1.33,0.621
					c0.236,0.395,0.348,0.864,0.334,1.408v5.698h-1.313v-5.769c-0.001-0.282-0.076-0.501-0.227-0.658
					c-0.149-0.156-0.368-0.236-0.656-0.238c-0.315-0.003-0.578,0.09-0.79,0.28c-0.212,0.19-0.415,0.494-0.611,0.911v5.473h-1.314
					v-7.601H229.549z M182.086,150.884l-0.14-4.086h1.133l-0.112,4.086H182.086z M179.944,150.884l-0.14-4.086h1.133l-0.141,4.086
					H179.944z M186.891,147.259v7.91c0.011,0.566-0.032,1.051-0.129,1.453c-0.096,0.402-0.309,0.71-0.638,0.923
					c-0.329,0.214-0.839,0.322-1.527,0.324c-0.657,0-1.146-0.132-1.463-0.396c-0.318-0.265-0.554-0.659-0.707-1.184l1.077-0.42
					c0.063,0.294,0.172,0.517,0.328,0.668c0.155,0.151,0.4,0.227,0.736,0.228c0.42,0.003,0.687-0.116,0.802-0.357
					c0.114-0.242,0.165-0.627,0.15-1.155v-7.994H186.891z M190.779,147.078c0.902,0,1.556,0.199,1.958,0.598
					c0.402,0.399,0.652,0.999,0.749,1.799c0.096,0.8,0.136,1.803,0.12,3.006c0.016,1.213-0.024,2.218-0.12,3.015
					c-0.097,0.798-0.347,1.393-0.749,1.786c-0.402,0.393-1.056,0.589-1.958,0.588c-0.904,0-1.564-0.202-1.98-0.604
					c-0.416-0.402-0.68-1.002-0.789-1.801s-0.157-1.793-0.142-2.984c-0.016-1.182,0.032-2.173,0.142-2.975s0.373-1.406,0.789-1.814
					C189.215,147.283,189.875,147.079,190.779,147.078z M190.779,148.167c-0.644-0.012-1.053,0.324-1.228,1.007
					c-0.176,0.683-0.252,1.785-0.229,3.306c-0.022,1.533,0.054,2.633,0.229,3.303c0.175,0.669,0.584,0.997,1.228,0.982
					c0.431,0.004,0.743-0.137,0.938-0.423c0.193-0.287,0.314-0.745,0.361-1.375c0.048-0.63,0.067-1.459,0.06-2.486
					c0.008-1.023-0.012-1.852-0.06-2.487c-0.047-0.635-0.168-1.099-0.361-1.392C191.522,148.309,191.21,148.164,190.779,148.167z
					 M195.242,147.259l1.245,4.591l1.315-4.591h1.162l-1.834,6.033v4.396h-1.371v-4.396l-1.876-6.033H195.242z M205.417,147.078
					c0.903,0,1.556,0.199,1.958,0.598c0.403,0.399,0.652,0.999,0.749,1.799c0.096,0.8,0.136,1.803,0.12,3.006
					c0.016,1.213-0.024,2.218-0.12,3.015c-0.097,0.798-0.346,1.393-0.749,1.786c-0.402,0.393-1.055,0.589-1.958,0.588
					c-0.904,0-1.564-0.202-1.98-0.604c-0.416-0.402-0.679-1.002-0.789-1.801c-0.109-0.799-0.157-1.793-0.142-2.984
					c-0.016-1.182,0.032-2.173,0.142-2.975c0.11-0.802,0.373-1.406,0.789-1.814C203.853,147.283,204.513,147.079,205.417,147.078z
					 M205.417,148.167c-0.644-0.012-1.052,0.324-1.228,1.007c-0.176,0.683-0.252,1.785-0.229,3.306
					c-0.022,1.533,0.054,2.633,0.229,3.303c0.176,0.669,0.584,0.997,1.228,0.982c0.432,0.004,0.744-0.137,0.938-0.423
					s0.314-0.745,0.361-1.375c0.048-0.63,0.067-1.459,0.06-2.486c0.008-1.023-0.012-1.852-0.06-2.487
					c-0.047-0.635-0.168-1.099-0.361-1.392C206.161,148.309,205.849,148.164,205.417,148.167z M209.236,147.259h4.296v1.09h-2.898
					v3.46h2.353l-0.112,1.104h-2.24v4.774h-1.397V147.259z M217.175,147.259h1.384v6.286c-0.019,1.133,0.037,1.955,0.167,2.466
					s0.448,0.763,0.954,0.754c0.494,0.008,0.806-0.243,0.938-0.754c0.131-0.511,0.188-1.333,0.17-2.466v-6.286h1.397v7.42
					c0.011,0.67-0.042,1.242-0.157,1.717c-0.116,0.475-0.354,0.838-0.715,1.091c-0.361,0.252-0.905,0.38-1.633,0.382
					c-0.705-0.001-1.238-0.125-1.602-0.37c-0.362-0.245-0.605-0.605-0.73-1.079c-0.124-0.474-0.182-1.055-0.173-1.742V147.259z
					 M225.577,147.078c0.616,0.004,1.08,0.11,1.391,0.317s0.521,0.486,0.629,0.839c0.108,0.353,0.168,0.751,0.178,1.194
					l-1.104,0.154c-0.012-0.457-0.083-0.807-0.214-1.048c-0.13-0.242-0.419-0.364-0.864-0.366c-0.471,0.005-0.777,0.129-0.924,0.373
					c-0.146,0.244-0.211,0.582-0.197,1.014c0.005,0.527,0.12,0.939,0.347,1.235c0.226,0.297,0.53,0.547,0.914,0.753
					c0.38,0.204,0.738,0.433,1.075,0.688c0.336,0.255,0.609,0.603,0.822,1.042c0.211,0.44,0.32,1.04,0.327,1.799
					c0.011,0.9-0.183,1.591-0.58,2.071c-0.398,0.48-1.067,0.723-2.009,0.727c-0.609,0.004-1.082-0.102-1.418-0.315
					s-0.578-0.559-0.725-1.034c-0.146-0.475-0.238-1.103-0.278-1.883l1.188-0.238c0.029,0.871,0.131,1.485,0.301,1.845
					s0.48,0.533,0.932,0.522c0.484,0,0.808-0.147,0.969-0.439c0.16-0.292,0.234-0.729,0.223-1.311
					c-0.004-0.659-0.134-1.158-0.391-1.498c-0.258-0.34-0.623-0.644-1.096-0.91c-0.515-0.278-0.961-0.65-1.338-1.117
					s-0.574-1.126-0.592-1.978c-0.017-0.751,0.155-1.342,0.514-1.774C224.015,147.306,224.655,147.086,225.577,147.078z
					 M228.842,147.259h4.002v1.09h-2.618v3.292h2.198l-0.098,1.104h-2.101v3.88h2.688v1.063h-4.072V147.259z"/>
				<path fill="#FFFFFF" d="M128.467,147.496v2.142h1.904l-0.111,0.937h-1.793v4.719c0.008,0.29,0.073,0.516,0.198,0.677
					c0.124,0.162,0.264,0.244,0.418,0.247c0.199,0,0.361-0.056,0.485-0.165c0.123-0.109,0.232-0.269,0.327-0.48l0.546,0.812
					c-0.119,0.247-0.319,0.459-0.601,0.64s-0.646,0.274-1.094,0.283c-0.507,0.003-0.898-0.144-1.175-0.441
					c-0.276-0.297-0.416-0.766-0.419-1.406v-4.887h-0.574l0.098-0.937h0.477v-1.918L128.467,147.496z M70.19,137.837v-26.456h3.884
					v22.86h5.147v3.596H70.19z M90.919,132.405c0.014,0.03-0.012,0.328-0.075,0.894c-0.064,0.566-0.251,1.222-0.559,1.966
					c-0.309,0.745-0.82,1.4-1.537,1.966c-0.717,0.566-1.72,0.864-3.011,0.894c-1.29-0.029-2.294-0.327-3.011-0.894
					c-0.717-0.566-1.229-1.221-1.537-1.966c-0.308-0.745-0.493-1.4-0.558-1.966c-0.064-0.565-0.09-0.864-0.076-0.894v-15.592
					c-0.014-0.029,0.012-0.327,0.076-0.894c0.064-0.566,0.25-1.222,0.558-1.966c0.309-0.745,0.82-1.4,1.537-1.967
					c0.717-0.566,1.721-0.864,3.011-0.894c1.291,0.03,2.294,0.328,3.011,0.894c0.717,0.566,1.229,1.222,1.537,1.967
					c0.308,0.744,0.494,1.4,0.559,1.966c0.063,0.566,0.089,0.864,0.075,0.894V132.405z M87.035,116.813
					c0.01-0.023-0.001-0.191-0.031-0.504c-0.031-0.312-0.138-0.624-0.321-0.936c-0.183-0.312-0.498-0.48-0.945-0.504
					c-0.447,0.024-0.763,0.192-0.945,0.504s-0.29,0.624-0.321,0.936c-0.03,0.313-0.041,0.48-0.031,0.504v15.592
					c-0.01,0.024,0.001,0.192,0.031,0.504c0.031,0.313,0.139,0.625,0.321,0.937s0.498,0.48,0.945,0.504
					c0.447-0.024,0.763-0.192,0.945-0.504c0.184-0.312,0.29-0.624,0.321-0.937c0.03-0.312,0.041-0.479,0.031-0.504V116.813z
					 M103.693,132.405c0.014,0.03-0.012,0.328-0.076,0.894c-0.064,0.566-0.251,1.222-0.559,1.966c-0.308,0.745-0.82,1.4-1.536,1.966
					c-0.717,0.566-1.721,0.864-3.011,0.894c-1.291-0.029-2.295-0.327-3.012-0.894c-0.717-0.566-1.229-1.221-1.536-1.966
					c-0.308-0.745-0.494-1.4-0.559-1.966c-0.064-0.565-0.09-0.864-0.076-0.894v-15.592c-0.014-0.029,0.012-0.327,0.076-0.894
					c0.064-0.566,0.251-1.222,0.559-1.966c0.308-0.745,0.819-1.4,1.536-1.967c0.717-0.566,1.721-0.864,3.012-0.894
					c1.29,0.03,2.294,0.328,3.011,0.894c0.716,0.566,1.229,1.222,1.536,1.967c0.308,0.744,0.494,1.4,0.559,1.966
					c0.064,0.566,0.09,0.864,0.076,0.894V132.405z M99.81,116.813c0.009-0.023-0.001-0.191-0.032-0.504
					c-0.031-0.312-0.138-0.624-0.32-0.936c-0.184-0.312-0.498-0.48-0.945-0.504c-0.448,0.024-0.763,0.192-0.946,0.504
					c-0.183,0.312-0.29,0.624-0.32,0.936c-0.03,0.313-0.042,0.48-0.032,0.504v15.592c-0.01,0.024,0.002,0.192,0.032,0.504
					c0.03,0.313,0.138,0.625,0.32,0.937c0.184,0.312,0.498,0.48,0.946,0.504c0.447-0.024,0.762-0.192,0.945-0.504
					c0.183-0.312,0.289-0.624,0.32-0.937c0.031-0.312,0.041-0.479,0.032-0.504V116.813z M106.355,111.381h3.883v8.818v0.432
					l0.324-0.432l3.24-8.818h3.78l-3.564,8.71l4.032,17.745h-3.78l-2.7-11.518l-0.107-0.54l-0.324,0.54l-0.9,2.159v9.359h-3.883
					v-5.93v-6.959v-6.639v-4.971V111.381z M73.104,188.628c0.616,0.004,1.08,0.11,1.391,0.316c0.311,0.207,0.521,0.486,0.628,0.84
					c0.109,0.353,0.168,0.751,0.178,1.194l-1.104,0.153c-0.012-0.457-0.083-0.807-0.214-1.048c-0.131-0.242-0.419-0.364-0.865-0.366
					c-0.47,0.004-0.777,0.129-0.923,0.373s-0.212,0.582-0.198,1.014c0.005,0.527,0.121,0.939,0.347,1.235
					c0.227,0.296,0.531,0.548,0.914,0.753c0.381,0.203,0.739,0.433,1.075,0.688c0.337,0.255,0.61,0.603,0.822,1.043
					c0.212,0.439,0.321,1.039,0.328,1.798c0.011,0.901-0.183,1.591-0.581,2.071c-0.397,0.48-1.067,0.723-2.008,0.728
					c-0.609,0.004-1.082-0.102-1.418-0.315c-0.337-0.214-0.578-0.559-0.725-1.033c-0.146-0.476-0.239-1.104-0.279-1.884l1.188-0.238
					c0.03,0.87,0.131,1.485,0.302,1.845c0.17,0.359,0.48,0.533,0.931,0.521c0.485,0,0.808-0.146,0.969-0.439
					c0.161-0.292,0.235-0.729,0.223-1.311c-0.003-0.658-0.134-1.158-0.391-1.498s-0.622-0.645-1.095-0.91
					c-0.516-0.278-0.961-0.65-1.338-1.117s-0.574-1.126-0.593-1.978c-0.016-0.751,0.155-1.343,0.515-1.774
					C71.542,188.857,72.182,188.636,73.104,188.628z M77.683,189.496v2.143h1.904l-0.112,0.937h-1.792v4.72
					c0.008,0.289,0.073,0.516,0.198,0.677c0.124,0.162,0.264,0.244,0.418,0.247c0.199,0,0.361-0.056,0.484-0.164
					c0.124-0.109,0.233-0.27,0.328-0.48l0.546,0.813c-0.119,0.246-0.319,0.459-0.601,0.639c-0.281,0.181-0.646,0.275-1.094,0.283
					c-0.507,0.004-0.898-0.143-1.175-0.44c-0.276-0.297-0.416-0.766-0.419-1.405v-4.888h-0.574l0.098-0.937h0.477v-1.918
					L77.683,189.496z M81.519,191.638v7.6h-1.313v-7.6H81.519z M81.519,188.264v1.818h-1.313v-1.818H81.519z M87.221,193.695v5.543
					h-1.3v-5.768c-0.001-0.288-0.073-0.51-0.216-0.663s-0.351-0.231-0.625-0.232c-0.213-0.006-0.407,0.082-0.583,0.265
					c-0.177,0.182-0.36,0.49-0.552,0.926v5.473h-1.314v-7.6h1.104l0.073,0.531c0.026,0.187,0.044,0.377,0.053,0.573
					c0.211-0.4,0.45-0.705,0.716-0.914c0.267-0.21,0.593-0.315,0.979-0.316c0.471,0.008,0.827,0.122,1.07,0.341
					c0.242,0.219,0.403,0.497,0.482,0.834c0.211-0.38,0.447-0.67,0.707-0.871c0.261-0.201,0.58-0.302,0.96-0.304
					c0.651,0.019,1.095,0.226,1.331,0.62s0.348,0.864,0.334,1.408v5.697h-1.301v-5.558c0.006-0.358-0.052-0.632-0.174-0.82
					c-0.121-0.188-0.344-0.284-0.667-0.285c-0.206-0.006-0.393,0.075-0.561,0.245C87.572,192.989,87.399,193.281,87.221,193.695z
					 M96.139,193.695v5.543h-1.3v-5.768c-0.001-0.288-0.073-0.51-0.216-0.663s-0.352-0.231-0.625-0.232
					c-0.213-0.006-0.407,0.082-0.583,0.265c-0.177,0.182-0.36,0.49-0.552,0.926v5.473h-1.314v-7.6h1.104l0.073,0.531
					c0.026,0.187,0.044,0.377,0.053,0.573c0.211-0.4,0.45-0.705,0.716-0.914c0.266-0.21,0.593-0.315,0.979-0.316
					c0.471,0.008,0.827,0.122,1.07,0.341c0.242,0.219,0.403,0.497,0.482,0.834c0.211-0.38,0.447-0.67,0.707-0.871
					c0.261-0.201,0.58-0.302,0.96-0.304c0.65,0.019,1.095,0.226,1.331,0.62s0.348,0.864,0.334,1.408v5.697h-1.301v-5.558
					c0.006-0.358-0.052-0.632-0.174-0.82c-0.121-0.188-0.344-0.284-0.667-0.285c-0.206-0.006-0.393,0.075-0.561,0.245
					C96.49,192.989,96.317,193.281,96.139,193.695z M104.162,199.238c-0.035-0.114-0.065-0.287-0.089-0.519
					s-0.036-0.422-0.037-0.571c-0.19,0.387-0.436,0.686-0.737,0.896c-0.301,0.211-0.689,0.317-1.168,0.32
					c-0.65-0.02-1.094-0.227-1.33-0.621s-0.348-0.863-0.334-1.407v-5.698h1.3v5.782c0,0.282,0.07,0.501,0.21,0.657
					c0.141,0.156,0.351,0.236,0.631,0.238c0.316,0.003,0.577-0.09,0.781-0.279c0.204-0.19,0.388-0.494,0.55-0.912v-5.486h1.328v7.6
					H104.162z M107.342,191.638c0.022,0.121,0.047,0.299,0.073,0.531l0.052,0.573c0.221-0.388,0.491-0.688,0.814-0.903
					s0.725-0.324,1.203-0.327c0.651,0.019,1.095,0.226,1.331,0.62s0.348,0.864,0.334,1.408v5.697h-1.314v-5.768
					c-0.001-0.282-0.076-0.502-0.226-0.658c-0.15-0.156-0.369-0.235-0.657-0.237c-0.314-0.003-0.578,0.091-0.79,0.28
					c-0.211,0.189-0.415,0.493-0.611,0.91v5.473h-1.313v-7.6H107.342z M116.51,193.947c0.008,0.68-0.133,1.258-0.421,1.732
					c-0.288,0.477-0.769,0.725-1.44,0.745l-0.25-0.001l-0.24-0.013c-0.125,0.067-0.218,0.153-0.276,0.259
					c-0.06,0.105-0.089,0.248-0.088,0.428c-0.001,0.169,0.051,0.318,0.156,0.45c0.104,0.132,0.272,0.202,0.503,0.209h0.742
					c0.464-0.005,0.862,0.159,1.196,0.493s0.509,0.869,0.524,1.605c0.003,0.874-0.175,1.503-0.533,1.887
					c-0.359,0.383-0.918,0.57-1.678,0.563h-1.177c-0.594-0.01-1.036-0.175-1.327-0.494c-0.291-0.32-0.437-0.733-0.436-1.24
					c-0.001-0.614,0.127-1.064,0.383-1.35c0.256-0.287,0.646-0.467,1.17-0.541c-0.279-0.102-0.489-0.245-0.629-0.43
					c-0.14-0.186-0.21-0.477-0.21-0.872c0.001-0.362,0.076-0.649,0.224-0.86c0.148-0.21,0.362-0.353,0.643-0.428
					c-0.388-0.197-0.667-0.478-0.838-0.84c-0.172-0.362-0.256-0.796-0.252-1.303c-0.007-0.39,0.048-0.76,0.163-1.108
					c0.115-0.35,0.328-0.636,0.639-0.856c0.312-0.223,0.758-0.336,1.339-0.344c0.155,0.001,0.301,0.014,0.438,0.037
					c0.137,0.023,0.262,0.053,0.375,0.089c0.092-0.305,0.202-0.581,0.33-0.829c0.128-0.249,0.271-0.448,0.425-0.599l0.783,0.42
					c-0.191,0.133-0.372,0.318-0.54,0.556c-0.169,0.238-0.311,0.486-0.425,0.745c0.274,0.224,0.466,0.504,0.573,0.84
					C116.463,193.233,116.515,193.583,116.51,193.947z M112.926,200.164c-0.004,0.485,0.123,0.811,0.38,0.975
					c0.257,0.166,0.668,0.242,1.231,0.23c0.498,0.004,0.851-0.093,1.058-0.291c0.207-0.199,0.308-0.527,0.301-0.984
					c0.002-0.438-0.103-0.734-0.313-0.89c-0.21-0.155-0.535-0.228-0.975-0.218c-0.567-0.013-0.989,0.06-1.267,0.216
					C113.063,199.359,112.925,199.679,112.926,200.164z M114.396,195.586c0.331,0.005,0.563-0.118,0.694-0.37
					c0.131-0.252,0.194-0.665,0.188-1.241c0.007-0.565-0.055-0.964-0.184-1.194c-0.129-0.229-0.361-0.34-0.699-0.332
					c-0.336-0.007-0.567,0.107-0.691,0.343c-0.125,0.235-0.184,0.63-0.177,1.184c-0.007,0.563,0.052,0.974,0.177,1.231
					C113.829,195.463,114.061,195.589,114.396,195.586z M71.713,174.81h1.398v4.494h2.41v-4.494h1.384v10.428h-1.384v-4.844h-2.41
					v4.844h-1.398V174.81z M80.154,177.512c0.641,0,1.127,0.101,1.459,0.303c0.333,0.201,0.557,0.503,0.673,0.905
					s0.171,0.905,0.163,1.508v3.541c0.005,0.264,0.058,0.432,0.159,0.505c0.101,0.073,0.221,0.105,0.358,0.097l-0.111,0.867
					c-0.47-0.006-0.814-0.088-1.034-0.246c-0.219-0.158-0.351-0.355-0.393-0.592c-0.167,0.311-0.396,0.553-0.688,0.727
					c-0.291,0.175-0.692,0.264-1.203,0.266c-0.652-0.021-1.1-0.236-1.345-0.646c-0.244-0.41-0.36-0.885-0.348-1.424
					c-0.013-0.659,0.06-1.184,0.217-1.574c0.157-0.39,0.476-0.669,0.957-0.838c0.48-0.169,1.2-0.252,2.158-0.248v-0.574
					c0.015-0.529-0.039-0.914-0.161-1.156c-0.122-0.241-0.4-0.36-0.834-0.356c-0.368-0.005-0.622,0.099-0.762,0.308
					c-0.139,0.21-0.222,0.551-0.247,1.023l-1.104-0.098c0.025-0.527,0.094-0.96,0.205-1.299c0.111-0.34,0.313-0.59,0.603-0.754
					C79.166,177.592,79.592,177.511,80.154,177.512z M81.177,183.054v-1.624c-0.59,0.026-1.032,0.087-1.327,0.183
					c-0.296,0.096-0.491,0.269-0.587,0.518c-0.096,0.25-0.14,0.619-0.132,1.107c-0.005,0.38,0.047,0.67,0.156,0.871
					c0.108,0.202,0.305,0.304,0.587,0.305c0.362-0.002,0.649-0.119,0.861-0.354C80.947,183.827,81.095,183.492,81.177,183.054z
					 M83.582,177.638h1.034c0.072,0.38,0.109,0.795,0.112,1.244c0.187-0.395,0.467-0.699,0.84-0.916
					c0.372-0.216,0.807-0.325,1.302-0.328l-0.112,1.314c-0.631,0-1.081,0.129-1.351,0.387c-0.271,0.258-0.44,0.642-0.511,1.153
					v4.745h-1.314V177.638z M92.106,179.695v5.543h-1.301v-5.768c-0.001-0.288-0.072-0.51-0.215-0.663
					c-0.144-0.153-0.352-0.231-0.626-0.232c-0.213-0.006-0.407,0.082-0.583,0.265c-0.176,0.182-0.36,0.49-0.552,0.926v5.473h-1.314
					v-7.6h1.104l0.073,0.531c0.026,0.187,0.044,0.377,0.053,0.573c0.212-0.4,0.45-0.705,0.717-0.914
					c0.266-0.21,0.592-0.315,0.979-0.316c0.471,0.008,0.827,0.122,1.07,0.341s0.404,0.497,0.482,0.834
					c0.211-0.38,0.447-0.67,0.708-0.871c0.26-0.201,0.58-0.302,0.96-0.304c0.65,0.019,1.094,0.226,1.33,0.62
					s0.348,0.864,0.334,1.408v5.697h-1.3v-5.558c0.006-0.358-0.052-0.632-0.174-0.82s-0.344-0.284-0.667-0.285
					c-0.206-0.006-0.394,0.075-0.561,0.245C92.457,178.989,92.284,179.281,92.106,179.695z M98.869,177.512
					c0.843,0.01,1.447,0.196,1.815,0.56c0.368,0.364,0.593,0.844,0.675,1.441c0.082,0.597,0.114,1.25,0.099,1.96
					c0.016,0.701-0.019,1.347-0.102,1.938c-0.084,0.591-0.31,1.065-0.678,1.427c-0.368,0.359-0.972,0.545-1.81,0.555
					c-0.838-0.01-1.44-0.195-1.806-0.555c-0.366-0.361-0.59-0.836-0.671-1.427c-0.082-0.591-0.114-1.236-0.099-1.938
					c-0.016-0.71,0.019-1.363,0.102-1.96c0.083-0.598,0.308-1.077,0.674-1.441C97.436,177.708,98.035,177.522,98.869,177.512z
					 M98.869,178.575c-0.404-0.002-0.695,0.1-0.875,0.304c-0.18,0.203-0.291,0.52-0.333,0.947c-0.043,0.428-0.061,0.977-0.053,1.647
					c-0.008,0.666,0.01,1.212,0.053,1.638c0.042,0.426,0.153,0.741,0.333,0.944c0.18,0.204,0.471,0.305,0.875,0.303
					c0.403,0.002,0.695-0.099,0.875-0.303c0.18-0.203,0.29-0.519,0.333-0.944c0.042-0.426,0.06-0.972,0.053-1.638
					c0.007-0.671-0.011-1.22-0.053-1.647c-0.043-0.428-0.153-0.744-0.333-0.947C99.564,178.674,99.272,178.573,98.869,178.575z
					 M103.538,177.638c0.022,0.121,0.048,0.299,0.073,0.531l0.053,0.573c0.22-0.388,0.491-0.688,0.814-0.903
					s0.724-0.324,1.203-0.327c0.65,0.019,1.094,0.226,1.33,0.62s0.348,0.864,0.334,1.408v5.697h-1.314v-5.768
					c0-0.282-0.076-0.502-0.226-0.658s-0.368-0.235-0.656-0.237c-0.315-0.003-0.579,0.091-0.79,0.28
					c-0.212,0.189-0.416,0.493-0.611,0.91v5.473h-1.314v-7.6H103.538z M109.78,177.638v7.6h-1.313v-7.6H109.78z M109.78,174.264
					v1.818h-1.313v-1.818H109.78z M113.229,177.512c0.788,0.013,1.356,0.19,1.705,0.532c0.349,0.343,0.563,0.771,0.645,1.286
					s0.114,1.038,0.1,1.569v0.586h-3.682c-0.003,0.517,0.021,0.991,0.072,1.424c0.052,0.433,0.174,0.78,0.368,1.043
					c0.194,0.264,0.506,0.398,0.933,0.405c0.45-0.004,0.761-0.139,0.933-0.404c0.172-0.265,0.276-0.635,0.313-1.108l1.063,0.154
					c-0.082,0.785-0.299,1.381-0.65,1.785c-0.352,0.403-0.933,0.605-1.743,0.607c-0.789-0.011-1.364-0.2-1.727-0.567
					c-0.361-0.368-0.59-0.848-0.685-1.439s-0.135-1.229-0.121-1.913c-0.014-0.736,0.026-1.401,0.119-1.997
					c0.093-0.595,0.316-1.069,0.671-1.421C111.896,177.701,112.459,177.521,113.229,177.512z M113.244,178.449
					c-0.533,0.011-0.869,0.221-1.009,0.629c-0.141,0.408-0.211,0.95-0.211,1.627h2.424v-0.561c0.013-0.476-0.062-0.873-0.224-1.195
					C114.063,178.628,113.735,178.461,113.244,178.449z M72.155,160.81l1.399,8.035l1.428-8.035h1.316l-2.1,10.428h-1.456
					l-2.086-10.428H72.155z M78.841,163.512c0.788,0.013,1.356,0.19,1.704,0.533c0.349,0.342,0.563,0.771,0.645,1.286
					s0.114,1.038,0.101,1.569v0.586h-3.683c-0.002,0.516,0.021,0.991,0.073,1.423c0.051,0.433,0.174,0.78,0.368,1.043
					c0.194,0.263,0.505,0.398,0.932,0.405c0.451-0.004,0.762-0.139,0.934-0.404c0.172-0.265,0.276-0.635,0.313-1.108L81.29,169
					c-0.082,0.786-0.299,1.381-0.65,1.785s-0.933,0.606-1.743,0.608c-0.789-0.011-1.364-0.201-1.727-0.568
					c-0.362-0.368-0.59-0.848-0.685-1.439s-0.135-1.229-0.122-1.913c-0.013-0.736,0.027-1.401,0.12-1.997
					c0.093-0.595,0.315-1.069,0.67-1.421S78.07,163.521,78.841,163.512z M78.854,164.449c-0.532,0.011-0.868,0.22-1.009,0.628
					c-0.14,0.409-0.21,0.951-0.21,1.627h2.424v-0.56c0.013-0.476-0.062-0.874-0.225-1.195
					C79.673,164.628,79.346,164.461,78.854,164.449z M82.241,163.638h1.034c0.072,0.38,0.11,0.795,0.112,1.244
					c0.188-0.394,0.467-0.699,0.84-0.916s0.807-0.326,1.302-0.329l-0.111,1.314c-0.631,0-1.081,0.129-1.352,0.387
					c-0.27,0.257-0.44,0.642-0.511,1.153v4.746h-1.314V163.638z M87.714,161.496v2.142h1.903l-0.111,0.937h-1.792v4.719
					c0.007,0.29,0.073,0.516,0.197,0.677c0.125,0.162,0.265,0.244,0.419,0.247c0.199,0,0.36-0.056,0.484-0.165
					s0.232-0.269,0.327-0.48l0.546,0.812c-0.119,0.247-0.318,0.459-0.6,0.64c-0.282,0.18-0.646,0.274-1.094,0.283
					c-0.508,0.003-0.899-0.144-1.176-0.441c-0.275-0.297-0.416-0.766-0.419-1.406v-4.887h-0.574l0.099-0.937h0.476v-1.918
					L87.714,161.496z M90.235,163.638h1.034c0.072,0.38,0.11,0.795,0.112,1.244c0.188-0.394,0.467-0.699,0.84-0.916
					s0.807-0.326,1.302-0.329l-0.111,1.314c-0.631,0-1.081,0.129-1.352,0.387c-0.27,0.257-0.44,0.642-0.511,1.153v4.746h-1.314
					V163.638z M96.283,163.512c0.641,0,1.127,0.101,1.459,0.303c0.333,0.201,0.557,0.503,0.673,0.906s0.171,0.905,0.163,1.507v3.541
					c0.005,0.264,0.058,0.432,0.159,0.505c0.101,0.073,0.221,0.105,0.358,0.097l-0.111,0.868c-0.47-0.006-0.814-0.088-1.033-0.247
					c-0.22-0.158-0.352-0.355-0.394-0.592c-0.167,0.311-0.396,0.553-0.688,0.727c-0.291,0.174-0.692,0.263-1.203,0.266
					c-0.651-0.021-1.1-0.237-1.345-0.647c-0.244-0.41-0.36-0.884-0.348-1.424c-0.013-0.659,0.06-1.184,0.217-1.574
					s0.476-0.669,0.957-0.838c0.48-0.169,1.2-0.251,2.158-0.248v-0.575c0.015-0.529-0.039-0.914-0.161-1.156s-0.4-0.361-0.834-0.357
					c-0.368-0.004-0.622,0.099-0.762,0.308c-0.139,0.209-0.222,0.55-0.247,1.023l-1.104-0.098c0.025-0.527,0.094-0.959,0.205-1.298
					c0.111-0.339,0.313-0.59,0.603-0.754C95.295,163.592,95.722,163.511,96.283,163.512z M97.306,169.054v-1.624
					c-0.59,0.026-1.032,0.087-1.327,0.183s-0.491,0.269-0.587,0.518s-0.14,0.619-0.132,1.107c-0.005,0.38,0.047,0.67,0.156,0.872
					c0.108,0.202,0.305,0.303,0.587,0.305c0.362-0.002,0.649-0.12,0.861-0.354C97.076,169.827,97.224,169.492,97.306,169.054z
					 M103.406,171.238c-0.036-0.115-0.065-0.288-0.089-0.519c-0.023-0.232-0.036-0.422-0.037-0.571
					c-0.19,0.387-0.437,0.686-0.737,0.896c-0.301,0.211-0.689,0.317-1.168,0.32c-0.65-0.019-1.094-0.226-1.33-0.62
					c-0.236-0.395-0.348-0.864-0.334-1.408v-5.698h1.3v5.782c0,0.282,0.07,0.501,0.21,0.658c0.141,0.156,0.351,0.236,0.631,0.238
					c0.316,0.003,0.577-0.09,0.781-0.28c0.204-0.19,0.388-0.494,0.55-0.911v-5.487h1.328v7.6H103.406z M107.818,163.512
					c0.788,0.013,1.356,0.19,1.705,0.533c0.348,0.342,0.563,0.771,0.644,1.286s0.114,1.038,0.101,1.569v0.586h-3.683
					c-0.003,0.516,0.021,0.991,0.073,1.423c0.051,0.433,0.174,0.78,0.368,1.043c0.194,0.263,0.505,0.398,0.932,0.405
					c0.45-0.004,0.762-0.139,0.934-0.404c0.172-0.265,0.276-0.635,0.313-1.108l1.063,0.154c-0.082,0.786-0.299,1.381-0.65,1.785
					s-0.933,0.606-1.743,0.608c-0.789-0.011-1.364-0.201-1.727-0.568c-0.362-0.368-0.59-0.848-0.685-1.439s-0.135-1.229-0.122-1.913
					c-0.013-0.736,0.027-1.401,0.12-1.997c0.093-0.595,0.316-1.069,0.67-1.421C106.485,163.701,107.047,163.521,107.818,163.512z
					 M107.832,164.449c-0.532,0.011-0.868,0.22-1.009,0.628c-0.14,0.409-0.21,0.951-0.21,1.627h2.424v-0.56
					c0.013-0.476-0.063-0.874-0.225-1.195C108.65,164.628,108.324,164.461,107.832,164.449z M112.323,163.638
					c0.022,0.121,0.047,0.299,0.073,0.532l0.053,0.573c0.22-0.388,0.491-0.689,0.814-0.904c0.322-0.214,0.724-0.324,1.203-0.327
					c0.65,0.019,1.094,0.226,1.33,0.62c0.236,0.395,0.348,0.864,0.334,1.408v5.698h-1.314v-5.768c0-0.282-0.076-0.501-0.226-0.658
					s-0.368-0.236-0.657-0.238c-0.314-0.003-0.578,0.09-0.789,0.28c-0.212,0.19-0.416,0.494-0.611,0.911v5.473h-1.314v-7.6H112.323z
					 M60.168,151.892h2.421v5.346h-1.021l-0.126-0.992c-0.118,0.318-0.324,0.591-0.618,0.818c-0.295,0.227-0.729,0.346-1.301,0.356
					c-0.733-0.006-1.265-0.23-1.594-0.675s-0.534-1.073-0.614-1.888s-0.114-1.78-0.102-2.896c-0.016-1.088,0.024-2.031,0.119-2.827
					s0.341-1.411,0.737-1.846s1.04-0.655,1.929-0.661c0.797-0.003,1.374,0.106,1.732,0.329c0.357,0.222,0.585,0.573,0.684,1.054
					c0.098,0.48,0.155,1.106,0.174,1.878l-1.146,0.28c-0.021-0.581-0.06-1.051-0.117-1.41c-0.058-0.358-0.181-0.62-0.368-0.784
					c-0.188-0.164-0.489-0.245-0.901-0.243c-0.45,0-0.778,0.157-0.984,0.471c-0.206,0.313-0.336,0.784-0.39,1.411
					c-0.054,0.627-0.077,1.41-0.069,2.348c-0.021,1.327,0.039,2.379,0.181,3.159s0.492,1.178,1.053,1.195
					c0.41-0.007,0.741-0.14,0.994-0.397c0.253-0.257,0.402-0.597,0.448-1.017v-1.919h-1.303L60.168,151.892z M64.931,157.238h-1.314
					v-11.03l1.314-0.238V157.238z M68.155,149.512c0.642,0,1.128,0.101,1.46,0.303c0.332,0.201,0.557,0.503,0.673,0.906
					s0.17,0.905,0.163,1.507v3.541c0.005,0.264,0.058,0.432,0.159,0.505c0.101,0.073,0.221,0.105,0.358,0.097l-0.112,0.868
					c-0.47-0.006-0.813-0.088-1.033-0.247s-0.351-0.355-0.394-0.592c-0.166,0.311-0.396,0.553-0.688,0.727
					c-0.291,0.174-0.692,0.263-1.203,0.266c-0.652-0.021-1.101-0.237-1.345-0.647s-0.36-0.884-0.348-1.424
					c-0.013-0.659,0.06-1.184,0.217-1.574s0.476-0.669,0.957-0.838c0.48-0.169,1.2-0.251,2.158-0.248v-0.575
					c0.015-0.529-0.039-0.914-0.161-1.156s-0.4-0.361-0.834-0.357c-0.369-0.004-0.623,0.099-0.762,0.308
					c-0.14,0.209-0.222,0.55-0.247,1.023l-1.104-0.098c0.025-0.527,0.094-0.959,0.205-1.298c0.111-0.339,0.313-0.59,0.603-0.754
					C67.168,149.592,67.594,149.511,68.155,149.512z M69.179,155.054v-1.624c-0.59,0.026-1.032,0.087-1.328,0.183
					c-0.295,0.096-0.49,0.269-0.586,0.518s-0.14,0.619-0.132,1.107c-0.005,0.38,0.047,0.67,0.156,0.872
					c0.108,0.202,0.304,0.303,0.586,0.305c0.363-0.002,0.65-0.12,0.862-0.354C68.949,155.827,69.096,155.492,69.179,155.054z
					 M75.279,157.238c-0.036-0.115-0.065-0.288-0.09-0.519c-0.023-0.232-0.035-0.422-0.036-0.571
					c-0.19,0.387-0.437,0.686-0.737,0.896c-0.301,0.211-0.69,0.317-1.168,0.32c-0.65-0.019-1.095-0.226-1.331-0.62
					c-0.236-0.395-0.348-0.864-0.333-1.408v-5.698h1.3v5.782c0,0.282,0.07,0.501,0.21,0.658c0.141,0.156,0.351,0.236,0.631,0.238
					c0.316,0.003,0.576-0.09,0.781-0.28c0.204-0.19,0.388-0.494,0.55-0.911v-5.487h1.328v7.6H75.279z M78.696,145.97v4.534
					c0.136-0.243,0.352-0.466,0.647-0.669c0.297-0.203,0.702-0.311,1.216-0.323c0.513,0.003,0.884,0.162,1.113,0.477
					c0.229,0.315,0.371,0.77,0.427,1.364c0.055,0.594,0.078,1.31,0.068,2.148c0.012,0.691-0.017,1.331-0.086,1.917
					c-0.068,0.586-0.249,1.06-0.542,1.419c-0.293,0.36-0.769,0.544-1.429,0.555c-0.494-0.002-0.879-0.103-1.156-0.299
					c-0.276-0.196-0.507-0.475-0.692-0.835c0,0.09-0.018,0.246-0.053,0.469c-0.034,0.223-0.087,0.393-0.157,0.511h-0.699v-11.03
					L78.696,145.97z M79.971,150.561c-0.329,0.005-0.605,0.103-0.83,0.292c-0.224,0.189-0.396,0.437-0.515,0.744v3.851
					c0.109,0.283,0.266,0.502,0.47,0.658c0.203,0.156,0.43,0.236,0.68,0.238c0.48,0.013,0.787-0.202,0.919-0.645
					c0.132-0.442,0.19-1.189,0.174-2.24c0.016-1.089-0.026-1.849-0.128-2.279S80.383,150.543,79.971,150.561z M84.705,155.083
					l0.883-5.445h1.176l0.867,5.445l0.813-5.445h1.204l-1.512,7.6H87.1l-0.924-5.584l-0.952,5.584H84.02l-1.47-7.6h1.357
					L84.705,155.083z M94.024,157.238c-0.036-0.115-0.065-0.288-0.089-0.519c-0.024-0.232-0.036-0.422-0.037-0.571
					c-0.19,0.387-0.437,0.686-0.737,0.896c-0.301,0.211-0.69,0.317-1.168,0.32c-0.651-0.019-1.095-0.226-1.331-0.62
					c-0.236-0.395-0.348-0.864-0.334-1.408v-5.698h1.301v5.782c0,0.282,0.07,0.501,0.21,0.658s0.351,0.236,0.631,0.238
					c0.316,0.003,0.576-0.09,0.78-0.28c0.205-0.19,0.389-0.494,0.551-0.911v-5.487h1.328v7.6H94.024z M92.076,146.978v1.679h-1.146
					v-1.679H92.076z M94.358,146.978v1.679h-1.146v-1.679H94.358z M96.099,149.638h1.035c0.072,0.38,0.109,0.795,0.111,1.244
					c0.188-0.394,0.468-0.699,0.84-0.916c0.373-0.216,0.807-0.326,1.302-0.329l-0.111,1.314c-0.631,0-1.081,0.129-1.352,0.387
					c-0.27,0.257-0.44,0.642-0.511,1.153v4.746h-1.314V149.638z M104.89,145.97v11.268h-1.104c-0.034-0.127-0.058-0.303-0.07-0.528
					l-0.027-0.548c-0.145,0.363-0.357,0.655-0.642,0.875c-0.283,0.221-0.658,0.335-1.124,0.341
					c-0.633-0.008-1.094-0.177-1.384-0.507c-0.29-0.33-0.473-0.774-0.548-1.332c-0.075-0.557-0.107-1.181-0.098-1.87
					c-0.01-0.841,0.025-1.571,0.107-2.192s0.275-1.103,0.579-1.445c0.305-0.342,0.784-0.516,1.44-0.521
					c0.407,0.009,0.742,0.103,1.006,0.283c0.263,0.18,0.451,0.393,0.563,0.639v-4.226L104.89,145.97z M102.328,150.575
					c-0.5-0.009-0.813,0.229-0.942,0.712c-0.128,0.483-0.183,1.264-0.164,2.341c-0.019,0.922,0.025,1.608,0.131,2.059
					c0.106,0.45,0.385,0.674,0.836,0.672c0.433-0.01,0.754-0.147,0.963-0.413s0.354-0.6,0.438-1.002v-3.486
					c-0.122-0.27-0.294-0.483-0.515-0.641S102.604,150.578,102.328,150.575z M107.314,149.638v7.6H106v-7.6H107.314z
					 M107.314,146.264v1.818H106v-1.818H107.314z M112.667,151.947c0.007,0.679-0.134,1.257-0.422,1.732s-0.768,0.724-1.439,0.745
					l-0.251-0.001l-0.239-0.012c-0.126,0.067-0.218,0.153-0.277,0.259c-0.059,0.105-0.088,0.248-0.088,0.427
					c-0.001,0.169,0.051,0.319,0.156,0.45c0.105,0.132,0.273,0.202,0.503,0.209h0.742c0.464-0.005,0.863,0.159,1.197,0.493
					c0.333,0.334,0.508,0.869,0.523,1.605c0.004,0.874-0.174,1.503-0.533,1.887c-0.358,0.383-0.918,0.571-1.678,0.563h-1.177
					c-0.593-0.01-1.035-0.175-1.327-0.494c-0.291-0.32-0.436-0.733-0.436-1.24c0-0.614,0.127-1.064,0.383-1.35
					c0.257-0.287,0.646-0.466,1.17-0.541c-0.279-0.101-0.488-0.245-0.629-0.43c-0.14-0.186-0.209-0.476-0.209-0.872
					c0.001-0.363,0.075-0.649,0.224-0.86c0.147-0.21,0.362-0.353,0.643-0.428c-0.388-0.197-0.668-0.478-0.839-0.84
					s-0.255-0.796-0.252-1.302c-0.006-0.39,0.049-0.76,0.163-1.109c0.115-0.35,0.328-0.635,0.64-0.857
					c0.311-0.222,0.757-0.336,1.339-0.343c0.154,0.001,0.301,0.013,0.438,0.037c0.138,0.024,0.263,0.053,0.375,0.089
					c0.092-0.305,0.202-0.581,0.331-0.83c0.128-0.249,0.27-0.448,0.424-0.598l0.783,0.42c-0.191,0.133-0.371,0.318-0.54,0.556
					s-0.311,0.486-0.425,0.745c0.275,0.224,0.466,0.504,0.573,0.84S112.671,151.583,112.667,151.947z M109.083,158.164
					c-0.004,0.485,0.122,0.811,0.38,0.975c0.257,0.165,0.667,0.242,1.23,0.229c0.498,0.004,0.851-0.092,1.058-0.291
					c0.207-0.199,0.308-0.527,0.302-0.984c0.001-0.438-0.104-0.735-0.313-0.89c-0.211-0.155-0.536-0.227-0.976-0.217
					c-0.566-0.013-0.988,0.059-1.266,0.215C109.22,157.358,109.082,157.679,109.083,158.164z M110.554,153.586
					c0.331,0.005,0.563-0.118,0.693-0.37c0.132-0.252,0.194-0.666,0.189-1.242c0.006-0.566-0.056-0.964-0.185-1.194
					c-0.128-0.23-0.361-0.341-0.698-0.333c-0.337-0.007-0.567,0.107-0.692,0.343s-0.184,0.63-0.177,1.184
					c-0.007,0.563,0.052,0.974,0.177,1.231C109.986,153.463,110.217,153.59,110.554,153.586z M117.021,157.238l-0.98-4.171
					l-1.021,1.372v2.799h-1.314v-11.03l1.314-0.238v6.929l1.848-3.261h1.54l-1.526,2.184l1.708,5.417H117.021z M121.326,149.512
					c0.788,0.013,1.356,0.19,1.705,0.533s0.563,0.771,0.645,1.286c0.08,0.515,0.114,1.038,0.1,1.569v0.586h-3.682
					c-0.003,0.516,0.021,0.991,0.072,1.423s0.174,0.78,0.368,1.043c0.194,0.263,0.505,0.398,0.933,0.405
					c0.45-0.004,0.761-0.139,0.933-0.404c0.172-0.265,0.276-0.635,0.313-1.108l1.063,0.154c-0.082,0.786-0.299,1.381-0.65,1.785
					s-0.933,0.606-1.742,0.608c-0.789-0.011-1.365-0.201-1.728-0.568c-0.361-0.368-0.59-0.848-0.685-1.439
					c-0.094-0.592-0.135-1.229-0.121-1.913c-0.014-0.736,0.026-1.401,0.119-1.997c0.093-0.595,0.316-1.069,0.67-1.421
					C119.993,149.701,120.556,149.521,121.326,149.512z M121.34,150.449c-0.532,0.011-0.868,0.22-1.008,0.628
					c-0.141,0.409-0.211,0.951-0.211,1.627h2.424v-0.56c0.013-0.476-0.062-0.874-0.224-1.195
					C122.158,150.628,121.832,150.461,121.34,150.449z M126.041,149.638v7.6h-1.314v-7.6H126.041z M126.041,146.264v1.818h-1.314
					v-1.818H126.041z"/>
				<path fill="#FFFFFF" d="M151.653,53.12c81.591,0,147.732,66.141,147.732,147.732c0,81.591-66.142,147.732-147.732,147.732
					S3.921,282.443,3.921,200.852C3.921,119.261,70.063,53.12,151.653,53.12z M152.703,200.251l121.355,70.067
					c38.16-67.175,15.012-152.663-52.001-191.354c-21.893-12.64-45.767-18.728-69.355-18.874L152.703,200.251z M29.306,270.318
					l121.374-70.082l-0.002-140.134C73.427,60.641,10.971,123.433,10.972,200.816C10.973,226.095,17.638,249.816,29.306,270.318z
					 M222.036,322.675c21.892-12.641,39.101-30.273,51.021-50.63l-121.376-70.077L30.327,272.037
					C69.42,338.672,155.024,361.367,222.036,322.675z"/>
			</g>
		</g>
		<path fill="#1A171B" d="M240.656,55.92l16.81-25.885l8.696,5.647l-2.537,3.906l-4.896-3.18l-4.418,6.803l3.522,2.288l-2.696,4.152
			l-3.522-2.288l-4.623,7.12l4.896,3.179l-2.536,3.906L240.656,55.92z M44.217,31.185l3.8-2.468l13.359,20.571
			c0.032,0.021,0.196,0.328,0.493,0.923s0.531,1.354,0.703,2.278s0.087,1.891-0.254,2.9c-0.342,1.009-1.135,1.938-2.379,2.787
			c-1.281,0.791-2.453,1.138-3.514,1.039s-1.979-0.414-2.753-0.947s-1.372-1.056-1.795-1.569c-0.423-0.513-0.637-0.788-0.643-0.826
			L37.877,35.302l3.8-2.467l13.358,20.571c0.006,0.029,0.123,0.187,0.352,0.473s0.531,0.523,0.908,0.712
			c0.378,0.188,0.793,0.153,1.246-0.108c0.422-0.308,0.624-0.672,0.604-1.094c-0.019-0.421-0.112-0.794-0.28-1.119
			c-0.169-0.325-0.265-0.496-0.289-0.514L44.217,31.185z M56.849,31.544c-0.544-1.008-0.896-2.084-1.057-3.228
			c-0.161-1.144-0.026-2.239,0.403-3.285c0.43-1.046,1.26-1.926,2.49-2.64c1.585-0.846,2.986-1.1,4.203-0.763
			c1.218,0.338,2.261,0.993,3.129,1.965c0.868,0.973,1.57,1.989,2.108,3.048l-3.729,2.458c-0.492-0.968-1.061-1.798-1.705-2.49
			c-0.644-0.691-1.304-0.889-1.982-0.593c-0.495,0.304-0.716,0.756-0.66,1.356c0.055,0.6,0.297,1.294,0.726,2.082
			c0.527,0.91,1.381,1.715,2.56,2.416c1.178,0.7,2.475,1.4,3.891,2.1c1.702,0.871,3.294,1.802,4.773,2.791
			c1.48,0.989,2.629,2.202,3.444,3.64c1.039,1.854,1.509,3.653,1.408,5.397c-0.101,1.745-1.208,3.217-3.322,4.416
			c-1.706,0.878-3.179,1.165-4.415,0.862c-1.237-0.303-2.307-0.983-3.21-2.04s-1.708-2.277-2.413-3.66l3.729-2.458
			c0.604,1.197,1.271,2.196,2.004,2.997s1.518,1.012,2.354,0.633c0.578-0.332,0.847-0.842,0.805-1.534s-0.298-1.472-0.768-2.34
			c-0.525-0.893-1.4-1.699-2.625-2.417c-1.225-0.718-2.544-1.442-3.959-2.171c-1.717-0.867-3.307-1.813-4.771-2.84
			C58.798,34.222,57.66,32.988,56.849,31.544z M82.015,45.661L70.453,17.043l9.613-3.884l1.744,4.317l-5.412,2.188l3.038,7.521
			l3.895-1.573l1.854,4.59l-3.895,1.573l3.18,7.871l5.413-2.187l1.745,4.317L82.015,45.661z M106.529,36.754l-4.31,1.4
			l-6.263-11.653l-1.16,0.377l4.022,12.381l-4.309,1.4l-9.538-29.354l4.309-1.399c2.548-0.819,4.646-0.702,6.298,0.349
			c1.651,1.052,2.919,2.961,3.804,5.729c0.484,1.483,0.724,2.882,0.719,4.198c-0.005,1.316-0.32,2.399-0.945,3.249L106.529,36.754z
			 M95.285,17.492c-0.464-1.368-0.976-2.305-1.535-2.809c-0.561-0.505-1.111-0.755-1.652-0.75c-0.542,0.005-1.018,0.087-1.428,0.247
			l2.829,8.707c0.425-0.112,0.858-0.325,1.3-0.64c0.44-0.315,0.739-0.841,0.896-1.578S95.715,18.872,95.285,17.492z M116.357,34.523
			l-5.889-30.298l10.178-1.978l0.889,4.571l-5.73,1.114l1.548,7.962l4.123-0.801l0.944,4.86l-4.123,0.801l1.62,8.333l5.73-1.114
			l0.889,4.571L116.357,34.523z M134.793,22.483L133,31.872l-4.436,0.388l3.566-16.583l-6.173-14.172l4.436-0.388l3.149,7.565
			l0.158,0.366l0.168-0.015l0.092-0.388l1.788-7.997l4.436-0.388l-3.618,15.028L142.958,31l-4.436,0.388l-3.396-8.935l-0.116-0.369
			l-0.167,0.015L134.793,22.483z M145.544,30.943l-0.538-30.86l1.127-0.02l2.135-0.038l1.268-0.022
			c1.343-0.041,2.622,0.209,3.84,0.75c1.217,0.542,2.222,1.481,3.014,2.818c0.791,1.337,1.221,3.18,1.287,5.528
			c0.016,2.349-0.349,4.209-1.094,5.58c-0.744,1.371-1.715,2.352-2.913,2.942c-1.197,0.59-2.468,0.889-3.811,0.895l0.216,12.346
			L145.544,30.943z M149.616,4.619l0.162,9.286c1.394,0.003,2.313-0.331,2.759-1.004c0.446-0.673,0.636-1.857,0.569-3.551
			c0.007-1.708-0.225-2.933-0.695-3.676S151.009,4.579,149.616,4.619z M161.232,31.057l2.69-30.747l10.329,0.903l-0.406,4.639
			l-5.815-0.509l-0.707,8.081l4.185,0.366l-0.432,4.932l-4.185-0.366l-0.739,8.457l5.815,0.509l-0.406,4.639L161.232,31.057z
			 M187.113,34.317l-4.475-0.708l-0.29-13.226l-1.205-0.19l-2.036,12.857l-4.476-0.709l4.829-30.484l4.475,0.708
			c2.641,0.427,4.458,1.484,5.452,3.17c0.994,1.686,1.257,3.963,0.788,6.831c-0.241,1.541-0.663,2.897-1.266,4.067
			c-0.602,1.17-1.375,1.992-2.317,2.466L187.113,34.317z M185.84,12.049c0.209-1.43,0.178-2.496-0.092-3.2
			c-0.27-0.704-0.647-1.176-1.132-1.418c-0.485-0.242-0.946-0.385-1.384-0.429l-1.432,9.042c0.43,0.093,0.912,0.1,1.447,0.02
			c0.536-0.08,1.041-0.413,1.516-0.999C185.237,14.479,185.597,13.474,185.84,12.049z M190.279,35.295l7.467-29.947l4.396,1.096
			l-7.468,29.948L190.279,35.295z M198.558,37.336l9.538-29.354l9.861,3.204l-1.439,4.429l-5.553-1.804l-2.506,7.714l3.994,1.298
			l-1.529,4.708l-3.995-1.298l-2.623,8.074l5.552,1.804l-1.438,4.429L198.558,37.336z M219.855,45.021l1.94-16.562l0.185-1.465
			l-0.233-0.094l-0.534,1.324l-6.025,14.912l-3.855-1.558l0.856-2.12l2.142-5.299l2.783-6.89l2.783-6.89l2.142-5.299l0.856-2.12
			l0.969,0.392l1.801,0.727l0.969,0.392l-0.202,1.723l-0.481,4.107l-0.574,4.902l-0.48,4.108l-0.202,1.722l-0.185,1.465l0.233,0.094
			l0.535-1.324l6.024-14.912l3.855,1.558l-0.856,2.12l-2.142,5.299l-2.783,6.89l-2.783,6.889l-2.141,5.299l-0.857,2.12l-0.969-0.392
			l-1.8-0.728L219.855,45.021z M238.94,42.768l3.741,1.989l-1.992,3.747c-0.002,0.039-0.191,0.332-0.568,0.879
			c-0.376,0.548-0.927,1.121-1.652,1.719c-0.725,0.599-1.611,0.993-2.659,1.184c-1.048,0.19-2.245-0.053-3.591-0.729
			c-1.313-0.738-2.185-1.594-2.612-2.57c-0.429-0.976-0.597-1.931-0.506-2.867s0.258-1.713,0.502-2.331
			c0.243-0.619,0.381-0.939,0.411-0.962l8.539-16.061c0.003-0.038,0.191-0.331,0.568-0.879c0.376-0.548,0.927-1.121,1.652-1.72
			c0.725-0.599,1.611-0.993,2.659-1.184c1.048-0.19,2.245,0.053,3.591,0.729c1.313,0.738,2.185,1.594,2.612,2.57
			c0.429,0.976,0.597,1.931,0.506,2.867s-0.258,1.713-0.501,2.332c-0.244,0.618-0.381,0.939-0.412,0.962l-1.992,3.746l-0.969-0.516
			l-1.802-0.958l-0.97-0.516l1.992-3.747c0.025-0.018,0.109-0.195,0.252-0.531c0.144-0.336,0.193-0.722,0.151-1.157
			c-0.042-0.435-0.329-0.81-0.861-1.124c-0.476-0.221-0.898-0.224-1.27-0.009s-0.664,0.472-0.879,0.77
			c-0.214,0.298-0.323,0.462-0.328,0.492l-8.54,16.061c-0.021,0.021-0.096,0.203-0.224,0.547c-0.127,0.344-0.176,0.731-0.146,1.159
			c0.029,0.428,0.269,0.777,0.717,1.048c0.558,0.265,1.029,0.293,1.414,0.085c0.384-0.208,0.676-0.465,0.874-0.771
			c0.199-0.307,0.299-0.476,0.3-0.507L238.94,42.768z"/>
	</g>
</g>
</svg>
